<svg width="565" height="468" viewBox="0 0 565 468" fill="none" xmlns="http://www.w3.org/2000/svg">
<path d="M160.322 340.685C151.213 340.685 143.015 334.309 141.193 325.2L97.4688 120.242C95.6469 109.311 102.023 99.2906 112.044 97.4688C122.975 95.6469 132.995 102.023 134.817 112.044L178.541 317.001C180.363 327.932 173.986 337.952 163.966 339.774C163.055 340.685 162.144 340.685 160.322 340.685Z" fill="black"/>
<path d="M311.536 340.685C310.625 340.685 308.803 340.685 307.892 340.685C296.961 338.863 290.584 327.932 293.317 317.912L337.042 112.954C338.863 102.023 349.794 95.6469 359.815 98.3797C370.746 100.202 377.122 111.133 374.389 121.153L330.665 325.199C328.843 334.309 320.645 340.685 311.536 340.685Z" fill="black"/>
<path d="M235.929 337.041C224.998 337.041 216.8 327.932 216.8 317.912V112.954C216.8 102.023 225.909 93.8251 235.929 93.8251C245.949 93.8251 255.058 102.934 255.058 112.954V317.912C255.969 327.932 246.86 337.041 235.929 337.041Z" fill="black"/>
<path d="M471.858 118.42C473.68 112.954 472.769 105.667 469.125 101.112C465.482 96.5578 460.016 92.9141 453.64 92.9141H19.1294C12.7529 92.9141 7.28738 95.6469 3.64369 101.112C0 106.578 -0.910923 112.954 0.910923 118.42L45.5462 261.435C45.5462 264.168 46.4571 266.9 48.2789 269.633L67.4083 331.576C70.1411 339.774 77.4285 345.24 85.6268 345.24H386.231C394.43 345.24 402.628 339.774 404.45 331.576L423.579 269.633C424.49 266.9 425.401 264.168 426.312 261.435L471.858 118.42ZM69.2301 205.869H403.539L392.608 240.484H80.1612L69.2301 205.869ZM426.312 132.084L415.381 166.699H56.4772L45.5462 132.084H426.312ZM100.202 306.981L92.0032 279.653H380.766L372.568 306.981H100.202Z" fill="#18456D"/>
<path d="M452.729 102.023H19.1293C12.7529 102.023 7.28735 104.756 3.64366 110.222C1.82181 112.044 0.910889 114.776 0.910889 117.509V118.42L45.5461 261.435C45.5461 264.168 46.457 266.9 48.2789 269.633L67.4083 331.576C70.141 339.774 77.4284 345.24 85.6267 345.24H386.231C394.43 345.24 402.628 339.774 404.45 331.576L423.579 269.633C424.49 266.9 425.401 264.168 426.312 261.435L470.947 118.42V117.509C470.036 114.776 469.125 112.954 468.214 110.222C465.482 104.756 459.105 102.023 452.729 102.023ZM380.766 288.763L372.568 316.09H100.201L92.0032 288.763H94.736L92.0032 279.653H380.766L378.033 288.763H380.766ZM403.539 214.978L392.608 249.593H80.1612L69.2301 214.978H71.9629L69.2301 205.869H403.539L400.806 214.978H403.539ZM426.312 141.193L415.381 175.808H56.4772L45.5461 141.193H48.2789L45.5461 132.084H426.312L423.579 141.193H426.312Z" fill="#0B3249"/>
<path d="M397.162 415.381H75.6066C64.6755 415.381 56.4772 406.272 56.4772 396.252C56.4772 385.32 65.5864 377.122 75.6066 377.122H397.162C408.093 377.122 416.292 386.231 416.292 396.252C416.292 407.183 408.093 415.381 397.162 415.381Z" fill="#0B3249"/>
<path d="M92.0032 415.381H219.532C219.532 398.984 201.314 385.32 181.274 376.211H112.954C99.2906 385.32 92.0032 399.895 92.0032 415.381Z" fill="black"/>
<path d="M189.472 415.381C189.472 442.709 167.61 467.303 140.282 467.303C112.954 467.303 91.0923 441.798 91.0923 415.381C91.0923 388.053 112.954 366.191 140.282 366.191C167.61 367.102 189.472 388.964 189.472 415.381Z" fill="#0E3451"/>
<path d="M189.472 415.381C189.472 442.709 167.61 464.571 140.282 464.571C112.954 464.571 91.0923 442.709 91.0923 415.381C91.0923 388.053 112.954 362.547 140.282 362.547C167.61 363.458 189.472 388.964 189.472 415.381Z" fill="#2689C6"/>
<path d="M140.282 464.571C167.449 464.571 189.472 442.548 189.472 415.381C189.472 388.214 167.449 366.191 140.282 366.191C113.115 366.191 91.0923 388.214 91.0923 415.381C91.0923 442.548 113.115 464.571 140.282 464.571Z" fill="#1B5A89"/>
<path d="M105.667 380.766C124.796 361.636 155.768 361.636 174.897 380.766C194.027 399.895 194.027 430.867 174.897 449.996" fill="#18456D"/>
<path d="M140.282 444.53C123.885 444.53 111.133 431.778 111.133 415.381C111.133 398.984 123.885 386.231 140.282 386.231C156.679 386.231 169.432 398.984 169.432 415.381C169.432 431.778 156.679 444.53 140.282 444.53Z" fill="#0B3249"/>
<path d="M161.233 395.341C172.164 406.272 172.164 425.401 161.233 436.332C150.302 447.263 131.173 447.263 120.242 436.332" fill="black"/>
<path d="M271.455 415.381H398.984C398.984 398.984 380.766 385.32 360.726 376.211H291.495C279.653 385.32 271.455 399.895 271.455 415.381Z" fill="black"/>
<path d="M368.924 415.381C368.924 442.709 347.062 467.303 319.734 467.303C292.406 467.303 270.544 441.798 270.544 415.381C270.544 388.053 292.406 366.191 319.734 366.191C347.062 366.191 368.924 388.964 368.924 415.381Z" fill="#0E3451"/>
<path d="M368.924 415.381C368.924 442.709 347.062 464.571 319.734 464.571C292.406 464.571 270.544 442.709 270.544 415.381C270.544 388.053 292.406 362.547 319.734 362.547C347.062 362.547 368.924 388.964 368.924 415.381Z" fill="#2689C6"/>
<path d="M320.645 464.571C347.812 464.571 369.835 442.548 369.835 415.381C369.835 388.214 347.812 366.191 320.645 366.191C293.478 366.191 271.455 388.214 271.455 415.381C271.455 442.548 293.478 464.571 320.645 464.571Z" fill="#1B5A89"/>
<path d="M286.03 380.766C305.159 361.636 336.131 361.636 355.26 380.766C374.389 399.895 374.389 430.867 355.26 449.996" fill="#18456D"/>
<path d="M320.645 444.53C304.248 444.53 291.495 431.778 291.495 415.381C291.495 398.984 304.248 386.231 320.645 386.231C337.042 386.231 349.794 398.984 349.794 415.381C348.884 431.778 336.131 444.53 320.645 444.53Z" fill="#0B3249"/>
<path d="M340.685 395.341C351.616 406.272 351.616 425.401 340.685 436.332C329.754 447.263 310.625 447.263 299.694 436.332" fill="black"/>
<path d="M564.772 49.1898C564.772 60.1209 555.663 68.3192 545.643 68.3192H463.66C452.729 68.3192 444.53 59.21 444.53 49.1898V48.2789C444.53 37.3478 453.64 29.1495 463.66 29.1495H545.643C556.574 29.1495 564.772 38.2588 564.772 48.2789V49.1898Z" fill="#1B5A89"/>
<path d="M463.66 28.2386C455.462 28.2386 448.174 33.7041 445.441 41.9024C448.174 50.1007 455.462 55.5663 463.66 55.5663H545.643C553.841 55.5663 561.129 50.1007 563.861 41.9024C561.129 33.7041 553.841 28.2386 545.643 28.2386H463.66Z" fill="#18456D"/>
<path opacity="0.5" d="M415.381 211.334C469.715 211.334 513.761 167.288 513.761 112.954C513.761 58.6209 469.715 14.5748 415.381 14.5748C361.047 14.5748 317.001 58.6209 317.001 112.954C317.001 167.288 361.047 211.334 415.381 211.334Z" fill="#0093F7"/>
<path d="M415.381 0C353.438 0 302.427 51.0117 302.427 112.954C302.427 174.897 352.527 225.909 414.47 225.909H415.381C477.324 225.909 528.335 174.897 528.335 112.954C528.335 51.0117 478.235 0 415.381 0ZM415.381 27.3277C462.749 27.3277 501.008 65.5865 501.008 112.954C501.008 160.322 462.749 198.581 415.381 198.581C368.013 198.581 329.754 160.322 329.754 112.954C329.754 65.5865 368.924 27.3277 415.381 27.3277Z" fill="#0093F7"/>
<path d="M560.218 236.84L521.959 198.581C516.493 193.116 507.384 193.116 501.008 198.581C495.542 204.047 495.542 214.067 501.008 219.532L539.266 257.791C544.732 263.257 554.752 263.257 560.218 257.791C566.594 252.326 566.594 242.306 560.218 236.84Z" fill="#0078DB"/>
</svg>
