<svg width="434" height="566" viewBox="0 0 434 566" fill="none" xmlns="http://www.w3.org/2000/svg">
<path d="M92.2823 566H18.4569C8.26449 566 0 557.737 0 547.543V18.4569C0 8.26338 8.26338 0 18.4569 0H92.2834C102.476 0 110.739 8.26338 110.739 18.4569V547.544C110.739 557.737 102.476 566 92.2823 566Z" fill="#40596B"/>
<path d="M378.359 566H73.8267V0H378.359C408.938 0 433.729 24.789 433.729 55.3696V510.63C433.729 541.211 408.938 566 378.359 566Z" fill="#0B3249"/>
<path d="M378.359 0H292.229V566H378.359C408.938 566 433.729 541.211 433.729 510.63V55.3696C433.729 24.789 408.938 0 378.359 0Z" fill="#0B3249"/>
<path d="M328.396 223.039L292.229 186.873L256.061 223.039C244.656 234.449 224.554 226.852 224.554 209.542V0H359.902V209.51C359.902 226.955 339.728 234.376 328.396 223.039Z" fill="#FFD15C"/>
<path d="M308.976 400.479H198.578C188.385 400.479 180.121 392.216 180.121 382.022C180.121 371.83 188.384 363.565 198.578 363.565H308.976C319.169 363.565 327.433 371.829 327.433 382.022C327.432 392.216 319.17 400.479 308.976 400.479Z" fill="#FFD15C"/>
<path d="M308.976 465.43H198.578C188.385 465.43 180.121 457.167 180.121 446.973C180.121 436.781 188.384 428.516 198.578 428.516H308.976C319.169 428.516 327.433 436.78 327.433 446.973C327.432 457.167 319.17 465.43 308.976 465.43Z" fill="#FFD15C"/>
<path d="M292.229 0V186.872L328.396 223.038C339.729 234.376 359.903 226.954 359.903 209.508V0H292.229Z" fill="#F8B64C"/>
<path d="M308.976 363.567H292.229V400.479H308.976C319.169 400.479 327.433 392.216 327.433 382.022C327.432 371.83 319.17 363.567 308.976 363.567Z" fill="#F8B64C"/>
<path d="M308.976 428.517H292.229V465.43H308.976C319.169 465.43 327.433 457.167 327.433 446.973C327.432 436.781 319.17 428.517 308.976 428.517Z" fill="#F8B64C"/>
</svg>
