<svg width="4169" height="4169" viewBox="0 0 4169 4169" fill="none" xmlns="http://www.w3.org/2000/svg">
<path d="M2095.86 4169C2064.67 4169 2039.15 4144.05 2039.15 4112.86C2039.15 4081.67 2064.11 4056.16 2095.29 4055.59C2113.44 4055.59 2132.15 4055.02 2150.3 4054.46C2181.48 4053.32 2207.57 4077.7 2208.7 4109.46C2209.84 4140.65 2185.45 4166.73 2153.7 4167.87C2135.55 4168.43 2115.71 4169 2095.86 4169C2096.43 4169 2096.43 4169 2095.86 4169ZM1869.61 4158.23C1867.91 4158.23 1865.64 4158.23 1863.37 4157.66L1805.53 4150.85C1774.34 4146.89 1752.79 4117.97 1756.76 4087.34C1760.73 4056.16 1789.65 4034.61 1820.27 4038.58C1838.42 4040.85 1856.56 4043.11 1874.71 4044.82C1905.9 4048.22 1928.58 4076 1925.18 4107.19C1922.91 4136.68 1898.53 4158.23 1869.61 4158.23ZM2378.25 4148.02C2350.47 4148.02 2326.08 4127.61 2322.11 4099.25C2317.58 4068.06 2339.13 4039.71 2370.31 4035.18L2424.75 4026.67C2455.37 4021.57 2484.86 4041.98 2490.53 4072.6C2496.2 4103.22 2475.22 4132.71 2444.6 4138.38C2425.32 4141.78 2406.04 4144.62 2386.76 4147.45C2383.92 4148.02 2381.09 4148.02 2378.25 4148.02ZM1591.18 4108.89C1586.65 4108.89 1582.11 4108.33 1577.57 4107.19C1558.86 4102.65 1540.15 4097.55 1521.44 4092.45C1491.38 4083.94 1473.8 4052.75 1482.31 4022.7C1490.82 3992.65 1522 3975.07 1552.06 3983.57C1569.64 3988.68 1587.78 3993.21 1605.36 3997.75C1635.98 4005.12 1654.13 4036.31 1646.76 4066.36C1639.38 4091.88 1616.13 4108.89 1591.18 4108.89ZM2654.97 4087.34C2630.59 4087.34 2607.91 4071.47 2600.54 4046.52C2591.46 4016.46 2609.04 3984.71 2639.1 3976.2C2656.67 3971.1 2674.25 3965.43 2691.83 3959.76C2721.88 3950.12 2753.64 3966.56 2763.28 3996.05C2772.92 4026.1 2756.47 4057.86 2726.99 4067.5C2708.84 4073.74 2689.56 4079.41 2671.42 4084.51C2665.75 4086.78 2660.64 4087.34 2654.97 4087.34ZM1321.27 4021C1313.9 4021 1307.09 4019.87 1299.72 4017.03C1281.57 4009.66 1263.43 4002.29 1245.85 3994.35C1216.93 3981.87 1203.89 3948.42 1216.93 3919.5C1229.41 3890.58 1262.86 3877.54 1291.78 3890.58C1308.79 3897.95 1325.8 3905.32 1342.82 3912.13C1371.74 3924.03 1385.91 3956.92 1374 3985.84C1364.93 4007.96 1343.95 4021 1321.27 4021ZM2920.92 3989.24C2899.37 3989.24 2878.96 3976.77 2869.32 3955.79C2856.28 3927.44 2868.75 3893.41 2897.67 3880.94C2914.12 3873.57 2931.13 3865.63 2947.57 3857.69C2975.92 3844.08 3009.95 3855.42 3023.56 3883.77C3037.17 3912.13 3025.82 3946.15 2997.47 3959.76C2979.89 3968.26 2962.31 3976.77 2944.74 3984.71C2936.23 3987.54 2928.29 3989.24 2920.92 3989.24ZM1066.66 3896.25C1057.02 3896.25 1047.38 3893.98 1038.31 3888.31C1021.86 3878.67 1004.85 3868.46 988.409 3858.26C961.757 3841.81 953.251 3806.65 970.263 3780C986.707 3753.35 1021.86 3744.85 1048.52 3761.86C1064.39 3771.5 1080.27 3781.14 1095.58 3790.21C1122.8 3806.09 1131.87 3840.68 1116 3867.9C1105.22 3886.61 1086.51 3896.25 1066.66 3896.25ZM3169.86 3854.29C3151.14 3854.29 3133 3845.21 3121.66 3828.2C3104.64 3801.55 3112.58 3766.96 3139.23 3749.95C3154.54 3740.31 3169.86 3730.1 3185.17 3719.9C3191.34 3715.71 3198.28 3712.78 3205.59 3711.29C3212.9 3709.79 3220.43 3709.75 3227.76 3711.17C3235.08 3712.6 3242.05 3715.45 3248.27 3719.58C3254.49 3723.7 3259.83 3729.01 3263.99 3735.21C3268.17 3741.38 3271.1 3748.32 3272.59 3755.63C3274.09 3762.94 3274.13 3770.47 3272.71 3777.8C3271.28 3785.12 3268.43 3792.09 3264.3 3798.31C3260.18 3804.53 3254.87 3809.87 3248.68 3814.03C3232.8 3824.8 3216.35 3835.57 3199.91 3845.78C3190.27 3851.45 3180.06 3854.29 3169.86 3854.29ZM832.469 3737.47C819.994 3737.47 808.086 3733.5 797.312 3725.57C782.002 3713.66 766.691 3701.18 751.948 3688.71C728.132 3668.86 724.73 3633.14 744.577 3608.75C764.423 3584.94 800.148 3581.53 824.531 3601.38C838.707 3613.29 852.883 3624.63 867.627 3635.97C892.01 3655.25 896.546 3690.98 877.266 3715.36C865.925 3730.1 848.914 3737.47 832.469 3737.47ZM3397.24 3686.44C3381.37 3686.44 3365.49 3679.63 3354.15 3666.59C3333.73 3642.78 3336.57 3607.05 3360.38 3586.64C3374.56 3574.73 3388.17 3562.82 3401.78 3550.35C3425.03 3529.37 3460.75 3531.07 3481.73 3554.32C3502.71 3577.57 3501.01 3613.29 3477.76 3634.27C3463.59 3647.31 3448.84 3660.35 3434.1 3672.83C3423.33 3681.9 3410.29 3686.44 3397.24 3686.44ZM622.093 3547.51C607.35 3547.51 592.607 3541.84 581.266 3529.93C567.656 3516.32 554.614 3501.58 541.572 3487.4C520.591 3464.16 522.292 3428.43 545.541 3407.45C568.791 3386.47 604.515 3388.17 625.496 3411.42C637.971 3425.03 650.446 3438.64 662.921 3451.68C684.469 3474.36 683.902 3510.09 661.22 3531.63C650.446 3542.41 636.27 3547.51 622.093 3547.51ZM3599.68 3488.54C3586.07 3488.54 3573.03 3484 3562.26 3474.36C3539.01 3453.38 3536.74 3417.66 3557.72 3394.41C3569.63 3380.8 3582.1 3366.62 3594.01 3352.45C3614.42 3328.63 3650.15 3325.23 3673.96 3345.64C3697.78 3366.06 3701.18 3401.78 3680.77 3425.6C3668.29 3440.34 3655.25 3455.08 3642.78 3469.83C3630.87 3481.73 3615.56 3488.54 3599.68 3488.54ZM440.637 3330.33C423.058 3330.33 406.047 3322.39 394.706 3307.08C383.365 3291.2 372.024 3275.33 361.25 3259.45C343.671 3233.37 349.909 3198.21 375.993 3180.63C402.077 3163.05 437.235 3169.29 454.813 3195.37C465.02 3210.68 475.794 3225.43 486.568 3240.17C504.714 3265.69 499.043 3300.84 474.093 3319.56C463.886 3326.93 451.978 3330.33 440.637 3330.33ZM3773.2 3263.99C3762.42 3263.99 3751.65 3261.15 3742.01 3254.35C3715.93 3236.77 3709.12 3201.61 3726.13 3175.53C3736.34 3160.22 3746.55 3144.91 3756.19 3129.03C3772.63 3102.38 3807.79 3094.44 3834.44 3110.88C3861.09 3127.33 3869.03 3162.48 3852.59 3189.13C3842.38 3205.58 3831.6 3222.02 3820.83 3237.9C3809.49 3255.48 3791.34 3263.99 3773.2 3263.99ZM290.368 3090.47C269.954 3090.47 250.675 3079.69 240.468 3060.41C231.395 3043.4 222.322 3025.82 213.816 3008.81C199.64 2981.03 211.548 2947 239.334 2932.83C267.686 2918.65 301.142 2930.56 315.319 2958.35C323.257 2974.79 331.763 2991.23 340.269 3007.11C355.012 3034.9 344.238 3068.92 317.02 3083.66C308.514 3088.2 299.441 3090.47 290.368 3090.47ZM3913.26 3017.89C3904.75 3017.89 3896.82 3016.18 3888.88 3012.22C3860.52 2998.61 3848.62 2964.58 3862.23 2936.8C3870.16 2920.35 3878.1 2903.34 3885.47 2886.9C3898.52 2858.54 3931.97 2845.5 3960.32 2857.98C3988.68 2871.02 4001.72 2904.48 3989.24 2932.83C3981.31 2950.41 3973.37 2968.55 3964.86 2985.56C3954.65 3005.98 3934.24 3017.89 3913.26 3017.89ZM175.824 2831.33C152.575 2831.33 131.027 2817.15 122.521 2793.9C115.717 2775.75 109.479 2757.04 103.241 2738.9C93.6015 2709.41 109.479 2677.09 139.533 2667.45C169.019 2657.81 201.341 2673.69 210.981 2703.74C216.652 2721.32 222.889 2738.9 229.127 2755.91C239.901 2785.39 224.59 2817.72 195.104 2828.49C188.866 2830.76 182.062 2831.33 175.824 2831.33ZM4017.6 2754.21C4011.93 2754.21 4006.26 2753.07 4000.59 2751.37C3970.53 2741.73 3954.09 2709.98 3963.73 2679.92C3969.4 2662.34 3974.5 2644.77 3979.6 2627.19C3988.11 2597.13 4019.87 2579.55 4049.92 2588.06C4079.97 2596.57 4097.55 2628.32 4089.05 2658.38C4083.94 2677.09 4078.27 2695.8 4072.03 2713.95C4064.1 2738.9 4041.98 2754.21 4017.6 2754.21ZM98.1379 2559.14C72.0536 2559.14 48.2374 2541 42.5669 2514.34C38.5975 2495.63 34.6281 2476.35 31.2258 2457.07C25.5553 2426.45 45.9692 2396.96 77.157 2391.29C107.778 2385.62 137.264 2406.04 142.935 2437.22C146.337 2455.37 149.74 2473.52 153.709 2491.09C159.947 2521.72 140.667 2551.77 110.046 2558.01C106.077 2558.57 102.107 2559.14 98.1379 2559.14ZM4083.94 2479.19C4081.11 2479.19 4077.7 2479.19 4074.3 2478.62C4043.68 2473.52 4022.7 2444.03 4027.8 2413.41L4036.31 2358.97C4040.85 2327.78 4069.2 2306.24 4100.39 2310.77C4131.57 2315.31 4153.12 2343.66 4148.59 2374.85C4145.75 2394.13 4142.92 2413.41 4139.51 2432.69C4135.54 2459.34 4111.16 2479.19 4083.94 2479.19ZM59.5784 2278.45C30.0917 2278.45 5.14147 2255.77 2.87327 2225.71C1.73917 2206.44 0.605063 2186.59 0.0380113 2167.31C-1.09609 2136.12 23.2872 2109.47 54.475 2108.34C85.6628 2107.2 112.314 2131.58 113.448 2162.77C114.015 2180.92 115.149 2199.63 116.284 2217.78C118.552 2248.96 94.7356 2276.18 63.5478 2277.88C61.8466 2278.45 60.7125 2278.45 59.5784 2278.45ZM4111.73 2197.36H4110.03C4078.84 2196.23 4053.89 2170.71 4055.02 2138.96C4055.59 2120.81 4055.59 2102.1 4055.59 2083.95C4055.59 2052.76 4081.11 2027.25 4112.29 2027.25C4143.48 2027.25 4169 2052.76 4169 2083.95C4169 2103.23 4169 2123.08 4168.43 2142.36C4167.3 2172.98 4142.35 2197.36 4111.73 2197.36ZM60.1455 1995.49H56.1762C24.9883 1993.22 1.17215 1966.01 3.44035 1934.82C4.57446 1915.54 6.27558 1896.26 8.54378 1876.98C11.379 1845.79 39.1646 1823.11 70.3524 1825.94C101.54 1828.78 124.222 1856.56 121.387 1887.75C119.686 1905.9 117.985 1924.61 116.851 1942.76C114.582 1972.81 89.6322 1995.49 60.1455 1995.49ZM4100.39 1921.78C4072.03 1921.78 4047.08 1900.23 4044.25 1871.31C4042.55 1853.16 4040.28 1835.02 4037.44 1816.87C4033.47 1785.68 4055.02 1757.33 4086.21 1752.79C4117.4 1748.82 4145.75 1770.37 4150.29 1801.56C4153.12 1820.84 4155.39 1840.12 4157.09 1859.4C4160.49 1890.59 4137.81 1918.37 4106.62 1921.78H4100.39ZM99.8391 1714.8C95.8697 1714.8 91.9003 1714.23 87.931 1713.67C57.3102 1706.86 38.0305 1676.81 44.268 1646.19C48.2374 1626.91 52.7738 1608.2 57.3102 1589.48C64.6819 1558.86 95.3026 1540.15 125.923 1547.52C156.544 1554.89 175.257 1585.51 167.885 1616.13C163.349 1633.71 159.38 1651.86 155.41 1670C149.173 1696.66 125.923 1714.8 99.8391 1714.8ZM4050.49 1642.79C4024.97 1642.79 4002.29 1625.77 3995.48 1599.69C3990.95 1582.11 3986.41 1563.97 3981.31 1546.39C3972.8 1516.33 3990.38 1485.15 4020.43 1476.64C4050.49 1468.13 4081.67 1485.71 4090.18 1515.77L4105.49 1571.9C4113.43 1602.53 4094.72 1633.15 4064.1 1640.52C4060.13 1642.22 4055.59 1642.79 4050.49 1642.79ZM178.092 1442.62C171.855 1442.62 165.05 1441.48 158.812 1439.21C129.326 1428.44 114.582 1396.12 125.356 1366.63C132.161 1348.49 138.966 1330.34 146.337 1312.2C157.678 1283.28 191.134 1269.1 220.054 1280.44C248.974 1291.78 263.15 1325.24 251.809 1354.16C245.004 1371.17 238.2 1388.75 231.962 1405.76C222.889 1428.44 201.341 1442.62 178.092 1442.62ZM3962.59 1374C3940.48 1374 3918.93 1360.96 3909.86 1338.85C3903.05 1321.83 3895.68 1304.82 3888.31 1288.38C3875.83 1259.46 3888.88 1226 3917.23 1213.53C3946.15 1201.05 3979.6 1214.1 3992.08 1242.45C4000.02 1260.03 4007.39 1278.17 4014.76 1295.75C4026.67 1324.67 4012.49 1358.13 3983.57 1369.47C3976.77 1372.3 3969.4 1374 3962.59 1374ZM294.338 1184.04C285.265 1184.04 276.192 1181.77 267.686 1177.24C239.901 1162.49 229.694 1127.9 244.437 1100.68C253.51 1083.67 263.15 1066.09 272.79 1049.65C288.1 1022.43 323.257 1012.79 349.909 1028.67C377.127 1043.98 386.767 1079.14 370.89 1105.79C361.817 1121.67 352.744 1138.11 344.238 1153.99C334.031 1173.27 314.185 1184.04 294.338 1184.04ZM3837.28 1119.96C3818 1119.96 3798.72 1109.76 3788.51 1091.61C3779.44 1075.73 3769.8 1059.86 3760.16 1044.55C3743.71 1017.9 3751.65 982.738 3778.3 966.294C3804.95 949.849 3840.11 957.788 3856.55 984.439C3866.76 1000.88 3876.97 1017.33 3886.61 1034.34C3902.49 1061.56 3893.41 1096.15 3866.19 1112.03C3857.12 1117.7 3846.91 1119.96 3837.28 1119.96ZM445.173 944.179C433.832 944.179 421.924 940.776 411.717 933.405C386.2 914.692 381.097 879.535 399.242 854.017C410.583 838.14 422.491 822.83 434.399 807.519C453.679 782.569 489.403 778.032 513.787 797.312C538.737 816.592 543.273 852.316 523.994 876.699C512.653 890.876 501.879 905.619 491.105 920.93C479.764 936.24 462.752 944.179 445.173 944.179ZM3677.93 885.772C3660.92 885.772 3644.48 878.401 3633.14 864.224C3621.8 850.048 3610.45 835.305 3598.55 821.696C3578.7 797.879 3581.53 762.155 3605.92 741.741C3629.73 721.894 3665.46 724.73 3685.87 749.113C3698.35 763.856 3710.82 779.167 3722.73 794.477C3742.01 818.86 3738.04 854.584 3713.09 873.864C3702.88 881.803 3690.41 885.772 3677.93 885.772ZM627.764 727.565C613.588 727.565 599.411 722.462 588.07 711.688C565.388 690.14 564.821 653.848 586.936 631.733C600.545 618.124 614.155 603.948 628.331 590.339C651.013 568.224 686.737 568.791 708.285 591.473C730.4 614.155 729.833 649.879 707.151 671.427L668.025 710.553C657.251 721.894 642.507 727.565 627.764 727.565ZM3487.4 676.53C3473.23 676.53 3459.05 671.427 3448.28 660.653C3435.24 648.178 3421.63 635.136 3408.02 623.228C3384.77 602.247 3383.07 566.522 3404.05 543.273C3425.03 520.024 3460.75 518.323 3484 539.304C3498.18 552.346 3512.92 565.955 3526.53 578.998C3549.21 600.546 3549.78 636.837 3528.23 658.952C3517.46 670.293 3502.71 676.53 3487.4 676.53ZM838.707 538.737C821.696 538.737 805.251 531.365 793.91 516.622C774.63 491.672 779.167 456.514 803.55 437.235C818.86 425.327 834.171 413.419 850.048 402.078C875.565 383.365 910.723 389.035 929.435 413.986C948.148 439.503 942.477 474.66 917.527 493.373C902.784 504.147 888.04 515.488 873.864 526.829C863.09 534.768 850.615 538.737 838.707 538.737ZM3270.22 495.074C3258.88 495.074 3246.97 491.672 3237.33 484.3C3222.59 473.526 3207.28 462.752 3191.97 452.545C3165.89 434.966 3159.65 399.809 3177.23 373.725C3194.81 347.641 3229.96 341.403 3256.05 358.982C3271.92 369.756 3288.37 381.097 3303.68 392.438C3329.2 410.583 3334.87 446.307 3316.72 471.825C3304.81 486.568 3287.8 495.074 3270.22 495.074ZM1073.47 380.53C1053.62 380.53 1034.91 370.323 1024.13 352.177C1008.26 324.958 1017.9 290.368 1045.11 274.491C1062.13 264.851 1079.14 255.211 1096.15 246.138C1123.93 231.395 1157.96 241.602 1172.7 269.387C1187.44 297.173 1177.24 331.196 1149.45 345.939C1133.57 354.445 1117.13 363.518 1101.25 372.591C1092.75 378.261 1083.11 380.53 1073.47 380.53ZM3029.23 345.372C3020.15 345.372 3011.08 343.104 3002.58 338.568C2986.13 330.062 2969.69 321.556 2953.24 313.617C2924.89 300.008 2913.55 265.985 2927.16 237.633C2940.77 209.28 2974.79 197.939 3003.14 211.548C3020.72 220.054 3037.73 229.127 3055.31 238.2C3083.1 252.943 3093.87 286.966 3079.13 314.752C3069.49 334.598 3049.64 345.372 3029.23 345.372ZM1328.07 257.479C1305.39 257.479 1284.41 243.87 1275.34 221.755C1263.43 192.836 1277.6 159.947 1307.09 148.038C1325.24 140.667 1343.38 133.862 1361.53 127.058C1391.02 116.284 1423.34 131.027 1434.11 160.514C1444.89 190 1430.14 222.322 1400.66 233.096C1383.64 239.334 1366.06 246.138 1349.05 252.943C1342.25 255.778 1335.44 257.479 1328.07 257.479ZM2770.08 230.828C2763.85 230.828 2757.04 229.694 2750.8 227.426C2733.23 221.188 2715.65 214.951 2698.64 209.28C2669.15 199.64 2652.7 167.318 2662.34 137.832C2671.98 108.345 2704.31 91.9004 2733.79 101.54C2751.94 107.778 2770.65 114.015 2789.36 120.82C2818.85 131.594 2834.16 163.916 2823.39 193.403C2814.88 216.652 2793.33 230.828 2770.08 230.828ZM1597.99 170.153C1572.47 170.153 1549.22 152.575 1542.98 127.058C1535.61 96.4368 1554.33 65.816 1584.38 58.4443C1603.09 53.9079 1622.37 49.3715 1641.08 45.4021C1671.71 38.5975 1701.76 58.4443 1708.56 89.0651C1715.37 119.686 1695.52 149.74 1664.9 156.544C1647.32 160.514 1629.18 164.483 1611.03 169.019C1607.06 170.153 1601.96 170.153 1597.99 170.153ZM2497.33 154.276C2493.36 154.276 2489.39 153.709 2485.99 153.142C2468.41 149.173 2449.7 145.77 2432.12 142.935C2401.5 137.264 2380.52 107.778 2386.19 77.157C2391.86 46.5363 2421.35 25.5553 2451.97 31.2258C2471.25 34.6281 2490.53 38.5976 2509.24 41.9999C2539.86 48.2374 2559.71 78.2911 2553.47 108.912C2547.23 135.563 2523.42 154.276 2497.33 154.276ZM1876.98 122.521C1848.06 122.521 1823.68 100.973 1820.84 71.4865C1817.44 40.2987 1840.12 12.5132 1871.31 9.11087L1929.15 4.00735C1960.33 1.73915 1987.55 24.9883 1989.82 56.1762C1992.09 87.364 1968.84 114.582 1937.65 116.851C1919.51 117.985 1900.79 119.686 1882.65 121.387C1880.38 121.954 1878.68 122.521 1876.98 122.521ZM2216.64 116.284H2212.67C2194.53 115.149 2175.81 114.015 2157.67 113.448C2126.48 112.314 2102.1 86.2299 2103.23 54.475C2104.37 23.2872 2130.45 -1.09609 2162.21 0.0380113C2181.48 0.605063 2201.33 1.73917 2220.61 2.87327C2251.8 5.14147 2275.62 31.7929 2273.35 62.9808C2271.08 93.0345 2246.13 116.284 2216.64 116.284Z" fill="white"/>
<path d="M3584.37 596.576C3499.88 596.576 3431.27 665.189 3431.27 749.68C3431.27 834.171 3499.88 902.784 3584.37 902.784C3668.86 902.784 3737.47 834.171 3737.47 749.68C3737.47 665.189 3668.86 596.576 3584.37 596.576Z" fill="white"/>
<path d="M3584.37 483.166C3437.5 483.166 3317.86 602.814 3317.86 749.68C3317.86 896.546 3437.5 1016.19 3584.37 1016.19C3731.24 1016.19 3850.88 896.546 3850.88 749.68C3850.88 602.814 3731.24 483.166 3584.37 483.166ZM3430.7 749.68C3430.7 665.19 3499.31 596.576 3583.8 596.576C3668.29 596.576 3736.91 665.19 3736.91 749.68C3736.91 834.171 3668.29 902.784 3583.8 902.784C3499.31 902.784 3430.7 834.171 3430.7 749.68Z" fill="white"/>
<path d="M3277.6 1521.44H889.175C871.596 1558.3 855.719 1596.29 842.109 1634.85H3325.23C3311.05 1596.29 3295.17 1558.3 3277.6 1521.44Z" fill="white"/>
<path d="M3177.23 990.111C2885.2 698.08 2496.77 537.037 2083.38 537.037C1670 537.037 1281.57 698.08 989.543 990.111C697.511 1282.14 536.469 1670.57 536.469 2083.95C536.469 2497.33 697.511 2885.76 989.543 3177.8C1281.57 3469.83 1670 3630.87 2083.38 3630.87C2496.77 3630.87 2885.2 3469.83 3177.23 3177.8C3469.26 2885.76 3630.3 2497.33 3630.3 2083.95C3630.3 1670.57 3469.83 1282.14 3177.23 990.111ZM903.918 2675.39H1397.82C1404.06 2693.53 1410.86 2711.68 1417.67 2729.82C1480.04 2890.87 1566.8 3045.11 1675.11 3188C1732.95 3263.99 1790.22 3328.63 1842.39 3381.37C1431.28 3305.38 1086.51 3038.3 903.918 2675.39ZM2026.68 3399.51C1958.63 3340.54 1859.97 3245.27 1762.43 3115.99C1679.08 3005.41 1587.22 2857.41 1518.6 2674.82H2026.68V3399.51ZM2140.09 3399.51V2675.39H2648.17C2579.56 2857.41 2487.69 3005.98 2404.34 3116.55C2306.8 3245.84 2208.14 3340.54 2140.09 3399.51ZM2324.95 3381.93C2377.12 3328.63 2434.39 3264.55 2492.23 3188.57C2601.1 3045.11 2687.86 2891.43 2749.67 2730.39C2756.47 2712.25 2763.28 2694.1 2769.52 2675.95H3263.42C3080.83 3038.3 2736.06 3305.38 2324.95 3381.93ZM3313.89 2561.98H2804.67C2846.07 2411.71 2867.05 2256.34 2867.05 2098.13C2867.05 1941.06 2846.07 1785.68 2805.24 1634.28H2686.73C2727.56 1773.78 2753.07 1928.58 2753.07 2098.13C2753.07 2268.24 2726.99 2423.62 2686.16 2561.98H2140.09V1634.85H2026.68V2561.98H1480.61C1439.78 2423.62 1413.7 2268.81 1413.7 2098.13C1413.7 1929.15 1439.78 1773.78 1480.04 1634.28H1361.53C1320.7 1785.68 1299.72 1941.06 1299.72 2098.13C1299.72 2256.34 1320.7 2411.14 1362.1 2561.98H852.883C795.044 2413.41 763.289 2252.37 763.289 2083.95C763.289 1926.31 791.075 1774.91 842.11 1634.85C856.286 1596.29 872.163 1558.3 889.175 1521.44C1068.93 1141.51 1425.04 860.256 1851.46 784.272C1797.02 841.544 1735.78 911.291 1674.54 994.648C1566.23 1142.08 1479.48 1299.72 1417.1 1462.47C1409.73 1481.74 1402.92 1501.59 1396.12 1521.44H1516.9C1586.08 1334.31 1679.08 1180.07 1763 1064.96C1860.53 932.272 1958.63 833.605 2026.68 771.796V1521.44H2140.09V771.796C2208.14 833.605 2306.24 932.839 2403.77 1064.96C2488.26 1180.07 2581.26 1333.74 2649.87 1521.44H2770.65C2763.85 1501.59 2757.04 1482.31 2749.67 1462.47C2687.29 1299.15 2601.1 1142.08 2492.23 994.648C2431.55 911.291 2370.31 840.977 2315.88 784.272C2742.3 860.256 3098.41 1141.51 3278.16 1521.44C3295.74 1558.3 3311.62 1596.29 3325.23 1634.85C3376.26 1774.91 3404.05 1926.31 3404.05 2083.95C3403.48 2252.37 3371.73 2413.98 3313.89 2561.98Z" fill="white"/>
</svg>
