<svg width="480" height="352" viewBox="0 0 480 352" fill="none" xmlns="http://www.w3.org/2000/svg">
<path d="M384 48C373.792 48 364.248 50.792 356 55.576C347.752 50.792 338.208 48 328 48C297.128 48 272 73.12 272 104C272 134.88 297.128 160 328 160C338.208 160 347.752 157.208 356 152.424C364.248 157.208 373.792 160 384 160C414.872 160 440 134.88 440 104C440 73.12 414.872 48 384 48ZM368 104C368 115.152 363.392 125.232 356 132.496C348.608 125.232 344 115.152 344 104C344 92.848 348.608 82.768 356 75.504C363.392 82.768 368 92.848 368 104ZM288 104C288 81.944 305.944 64 328 64C333.048 64 337.84 65.04 342.296 66.76C333.44 76.664 328 89.696 328 104C328 118.304 333.44 131.336 342.296 141.24C337.84 142.96 333.048 144 328 144C305.944 144 288 126.056 288 104ZM384 144C378.952 144 374.16 142.96 369.704 141.24C378.56 131.336 384 118.304 384 104C384 89.696 378.56 76.664 369.704 66.76C374.16 65.04 378.952 64 384 64C406.056 64 424 81.944 424 104C424 126.056 406.056 144 384 144Z" fill="#757575"/>
<path d="M446.264 0H33.736C15.136 0 0 15.136 0 33.736V318.264C0 336.864 15.136 352 33.736 352H446.264C464.864 352 480 336.864 480 318.264V33.736C480 15.136 464.864 0 446.264 0ZM464 318.264C464 328.04 456.048 336 446.264 336H33.736C23.952 336 16 328.04 16 318.264V33.736C16 23.96 23.952 16 33.736 16H446.264C456.048 16 464 23.96 464 33.736V318.264Z" fill="#757575"/>
<path d="M48 80H120C124.424 80 128 76.416 128 72C128 67.584 124.424 64 120 64H48C43.576 64 40 67.584 40 72C40 76.416 43.576 80 48 80Z" fill="#757575"/>
<path d="M224 64H152C147.576 64 144 67.584 144 72C144 76.416 147.576 80 152 80H224C228.424 80 232 76.416 232 72C232 67.584 228.424 64 224 64Z" fill="#757575"/>
<path d="M48 120H56C60.424 120 64 116.416 64 112C64 107.584 60.424 104 56 104H48C43.576 104 40 107.584 40 112C40 116.416 43.576 120 48 120Z" fill="#757575"/>
<path d="M88 104C83.576 104 80 107.584 80 112C80 116.416 83.576 120 88 120H104C108.424 120 112 116.416 112 112C112 107.584 108.424 104 104 104H88Z" fill="#757575"/>
<path d="M152 112C152 107.584 148.424 104 144 104H136C131.576 104 128 107.584 128 112C128 116.416 131.576 120 136 120H144C148.424 120 152 116.416 152 112Z" fill="#757575"/>
<path d="M192 120C196.424 120 200 116.416 200 112C200 107.584 196.424 104 192 104H176C171.576 104 168 107.584 168 112C168 116.416 171.576 120 176 120H192Z" fill="#757575"/>
<path d="M218.4 106.32C216.872 107.84 216 109.84 216 112C216 114.16 216.872 116.16 218.32 117.68C219.832 119.12 221.92 120 224 120C226.08 120 228.16 119.12 229.68 117.68C231.12 116.16 232 114.08 232 112C232 109.92 231.12 107.84 229.68 106.4C226.72 103.36 221.28 103.36 218.4 106.32Z" fill="#757575"/>
<path d="M40 296H128V232H40V296ZM56 248H112V280H56V248Z" fill="#757575"/>
<path d="M144 296H232V232H144V296ZM160 248H216V280H160V248Z" fill="#757575"/>
<path d="M248 296H336V232H248V296ZM264 248H320V280H264V248Z" fill="#757575"/>
<path d="M352 296H440V232H352V296ZM368 248H424V280H368V248Z" fill="#757575"/>
</svg>
