<svg width="351" height="351" viewBox="0 0 351 351" fill="none" xmlns="http://www.w3.org/2000/svg">
<path d="M175.5 0C78.7303 0 0 78.7303 0 175.5C0 272.27 78.7303 351 175.5 351C272.27 351 351 272.27 351 175.5C351 78.7303 272.27 0 175.5 0ZM266.836 116.682L153.436 251.682C152.192 253.164 150.644 254.361 148.897 255.192C147.15 256.023 145.245 256.469 143.311 256.5H143.083C141.191 256.499 139.32 256.101 137.592 255.33C135.863 254.56 134.316 253.435 133.051 252.028L84.4509 198.028C83.2167 196.719 82.2565 195.176 81.627 193.491C80.9974 191.805 80.7111 190.011 80.7849 188.213C80.8587 186.416 81.2911 184.651 82.0567 183.023C82.8222 181.395 83.9056 179.936 85.243 178.732C86.5804 177.529 88.1449 176.605 89.8445 176.014C91.5441 175.424 93.3446 175.179 95.1401 175.295C96.9356 175.41 98.6899 175.884 100.3 176.687C101.91 177.49 103.343 178.607 104.515 179.972L142.729 222.429L246.164 99.3178C248.484 96.6354 251.767 94.9737 255.302 94.6919C258.838 94.4102 262.342 95.5311 265.058 97.8123C267.773 100.093 269.482 103.352 269.815 106.883C270.148 110.414 269.078 113.934 266.836 116.682Z" fill="#06BC65"/>
</svg>
