<svg width="445" height="556" viewBox="0 0 445 556" fill="none" xmlns="http://www.w3.org/2000/svg">
<path d="M444.667 125.868V486.382C444.667 524.754 413.56 555.861 375.187 555.861H69.4792C31.1069 555.861 0 524.754 0 486.382V69.507C0 31.1347 31.1069 0.0278577 69.4792 0.0278577H318.827C322.516 -0.206133 326.356 1.0239 329.43 4.09786L440.597 115.265C443.671 118.338 444.901 122.179 444.667 125.868ZM305.708 27.8195H69.4792C46.4558 27.8195 27.7917 46.4837 27.7917 69.507V486.382C27.7917 509.405 46.4558 528.07 69.4792 528.07H375.187C398.211 528.07 416.875 509.405 416.875 486.382V138.986H319.604C311.93 138.986 305.708 132.765 305.708 125.09V27.8195ZM333.5 47.4712V111.195H397.223L333.5 47.4712ZM361.292 402.7C361.296 402.905 361.296 403.11 361.291 403.316C361.109 441.533 330.072 472.458 291.812 472.458H152.854C114.482 472.458 83.375 441.351 83.375 402.979V264.021C83.375 225.649 114.482 194.542 152.854 194.542H291.812C330.185 194.542 361.292 225.649 361.292 264.021V402.7ZM333.5 380.495V264.021C333.5 240.997 314.836 222.333 291.812 222.333H152.854C129.831 222.333 111.167 240.997 111.167 264.021V341.64L143.028 309.778C148.455 304.352 157.253 304.352 162.68 309.778L238.973 386.071L285.598 362.759C289.51 360.803 294.115 360.803 298.027 362.759L333.5 380.495ZM332.696 411.166L291.812 390.724L242.444 415.408C237.094 418.083 230.633 417.034 226.403 412.805L152.854 339.256L111.167 380.943V402.979C111.167 426.003 129.831 444.667 152.854 444.667H291.812C312.034 444.667 328.893 430.269 332.696 411.166ZM250.125 277.917V305.708H277.917V277.917H250.125ZM250.125 250.125H277.917C293.266 250.125 305.708 262.568 305.708 277.917V305.708C305.708 321.057 293.266 333.5 277.917 333.5H250.125C234.776 333.5 222.333 321.057 222.333 305.708V277.917C222.333 262.568 234.776 250.125 250.125 250.125Z" fill="#757575"/>
</svg>
