<svg width="4465" height="4467" viewBox="0 0 4465 4467" fill="none" xmlns="http://www.w3.org/2000/svg">
<path d="M2144.28 3382.32H2139.47C2118.39 3380.51 2097.31 3378.11 2076.24 3375.7C2043.12 3371.48 2020.24 3340.77 2024.45 3307.65C2028.67 3274.53 2059.38 3251.65 2092.5 3255.87C2111.16 3258.28 2130.43 3260.68 2149.1 3261.89C2182.22 3264.3 2206.91 3293.8 2204.5 3326.92C2201.49 3358.84 2174.99 3382.32 2144.28 3382.32ZM2383.94 3375.7C2354.44 3375.7 2328.54 3354.02 2324.33 3323.91C2319.51 3290.79 2343 3260.68 2375.51 3255.87C2394.18 3253.46 2412.85 3250.45 2431.51 3246.84C2464.03 3240.21 2495.94 3261.89 2501.96 3294.41C2507.99 3326.92 2486.91 3358.84 2454.39 3364.86C2433.92 3369.07 2412.85 3372.69 2391.77 3375.09C2389.96 3375.7 2386.95 3375.7 2383.94 3375.7ZM1851.03 3317.29C1843.81 3317.29 1837.18 3316.08 1829.96 3313.67C1810.09 3306.45 1790.21 3298.02 1770.95 3289.59C1740.24 3276.34 1726.39 3240.81 1740.24 3210.1C1753.48 3179.39 1789.01 3165.54 1819.72 3179.39C1837.18 3187.22 1854.65 3194.45 1872.71 3201.07C1904.02 3212.51 1919.68 3247.44 1908.24 3278.75C1898.6 3302.23 1875.72 3317.29 1851.03 3317.29ZM2672.98 3294.41C2650.1 3294.41 2627.82 3281.16 2617.58 3258.28C2604.33 3227.57 2618.18 3192.04 2648.29 3178.79C2665.75 3170.96 2682.61 3163.14 2699.47 3154.7C2728.98 3139.65 2765.11 3151.69 2780.16 3181.2C2795.22 3210.71 2783.17 3246.84 2753.67 3261.89C2735 3271.52 2715.73 3280.56 2696.46 3288.99C2689.24 3292.6 2681.41 3294.41 2672.98 3294.41ZM1587.29 3174.58C1574.64 3174.58 1562.6 3170.96 1551.76 3163.14C1534.9 3150.49 1518.04 3137.24 1501.78 3124C1475.89 3102.92 1472.27 3064.98 1493.35 3039.09C1514.43 3013.2 1552.36 3009.59 1578.25 3030.66C1592.71 3042.7 1607.76 3054.75 1623.42 3065.59C1650.51 3085.46 1655.93 3122.79 1636.06 3149.89C1624.02 3166.15 1605.35 3174.58 1587.29 3174.58ZM2928.29 3136.64C2910.83 3136.64 2893.97 3129.41 2881.93 3114.96C2860.85 3089.07 2864.46 3051.13 2889.75 3030.06C2904.21 3018.02 2918.66 3005.37 2932.51 2992.72C2957.2 2970.44 2995.13 2971.65 3017.41 2996.34C3039.69 3021.03 3038.49 3058.96 3013.8 3081.24C2998.14 3095.69 2982.49 3109.54 2966.23 3122.79C2955.39 3132.43 2941.54 3136.64 2928.29 3136.64ZM1371.71 2965.63C1353.65 2965.63 1336.19 2957.8 1324.14 2942.75C1310.9 2925.88 1298.25 2909.02 1286.21 2891.56C1266.94 2864.46 1274.17 2826.53 1301.26 2807.86C1328.36 2788.59 1366.3 2795.82 1384.96 2822.92C1395.8 2838.57 1407.24 2853.63 1418.68 2868.68C1439.16 2895.17 1434.34 2932.51 1408.45 2952.98C1397.61 2961.41 1384.96 2965.63 1371.71 2965.63ZM3131.22 2916.25C3119.18 2916.25 3107.13 2912.64 3096.9 2905.41C3069.8 2886.74 3062.57 2848.81 3081.84 2821.71C3092.68 2806.06 3102.92 2790.4 3113.15 2774.14C3130.62 2745.84 3167.95 2736.81 3196.25 2754.27C3224.55 2771.73 3233.59 2809.07 3216.12 2837.37C3205.29 2855.43 3193.24 2872.9 3181.2 2890.36C3169.16 2907.22 3150.49 2916.25 3131.22 2916.25ZM1221.18 2706.1C1197.69 2706.1 1174.81 2692.25 1165.17 2668.76C1157.35 2649.49 1149.52 2629.02 1142.89 2609.15C1132.06 2577.84 1148.92 2543.51 1180.23 2532.68C1211.54 2521.84 1245.86 2538.7 1256.7 2570.01C1262.72 2588.07 1269.35 2605.54 1276.57 2623C1289.22 2653.71 1274.17 2689.24 1243.45 2701.28C1236.83 2704.29 1229 2706.1 1221.18 2706.1ZM3267.31 2648.29C3260.68 2648.29 3254.06 2647.09 3248.04 2645.28C3216.73 2634.44 3199.87 2600.12 3210.7 2568.81C3216.73 2550.74 3222.75 2532.68 3227.56 2514.61C3236.6 2482.7 3269.72 2464.03 3301.63 2473.06C3333.54 2482.09 3352.21 2515.21 3343.18 2547.13C3337.16 2567.6 3331.14 2588.07 3324.51 2607.95C3315.48 2632.63 3292 2648.29 3267.31 2648.29ZM1147.71 2415.26C1117.6 2415.26 1091.11 2392.37 1088.1 2361.66C1085.69 2340.59 1083.88 2319.51 1082.68 2298.44C1080.87 2265.32 1106.16 2237.02 1139.28 2235.21C1172.4 2233.4 1200.7 2258.69 1202.51 2291.81C1203.71 2310.48 1204.92 2329.75 1207.33 2348.42C1210.94 2381.53 1187.45 2411.04 1154.34 2414.65C1151.93 2415.26 1149.52 2415.26 1147.71 2415.26ZM3324.51 2353.83H3320.9C3287.78 2352.03 3262.49 2323.73 3264.3 2290.61C3265.5 2271.94 3266.1 2252.67 3266.1 2234.01C3266.1 2200.89 3293.2 2173.79 3326.32 2173.79C3359.44 2173.79 3386.53 2200.89 3386.53 2234.01C3386.53 2255.08 3385.93 2276.16 3384.73 2297.23C3382.92 2329.15 3356.43 2353.83 3324.51 2353.83ZM1155.54 2115.38C1152.53 2115.38 1148.92 2115.38 1145.91 2114.78C1112.79 2109.36 1091.11 2078.65 1096.53 2045.53C1100.14 2024.45 1103.75 2003.98 1108.57 1982.91C1115.8 1950.39 1147.71 1929.92 1180.23 1937.14C1212.74 1944.37 1233.22 1976.28 1225.99 2008.8C1221.78 2027.47 1218.16 2046.13 1215.15 2064.8C1209.73 2094.3 1184.44 2115.38 1155.54 2115.38ZM3310.66 2110.56C3281.76 2110.56 3256.47 2089.49 3251.65 2060.58C3248.64 2041.92 3245.03 2023.25 3240.81 2004.58C3233.59 1972.07 3254.06 1940.15 3285.97 1932.32C3318.49 1925.1 3350.41 1945.57 3358.23 1977.49C3363.05 1997.96 3367.27 2019.04 3370.28 2040.11C3375.7 2072.63 3353.42 2103.94 3320.9 2109.36C3317.29 2110.56 3314.28 2110.56 3310.66 2110.56ZM1244.06 1828.75C1235.63 1828.75 1226.59 1826.95 1218.16 1822.73C1188.06 1808.28 1175.41 1772.75 1189.26 1742.64C1198.29 1723.38 1207.93 1704.71 1218.16 1686.04C1233.82 1656.54 1270.55 1645.7 1300.06 1661.96C1329.56 1677.61 1340.4 1714.34 1324.14 1743.85C1315.11 1760.71 1306.68 1777.57 1298.25 1794.43C1288.62 1816.11 1266.94 1828.75 1244.06 1828.75ZM3220.34 1824.54C3198.06 1824.54 3176.38 1811.89 3166.14 1790.22C3158.32 1773.36 3149.28 1755.89 3140.25 1739.63C3124.6 1710.73 3134.83 1674 3164.34 1657.74C3193.24 1642.08 3229.97 1652.32 3246.23 1681.83C3256.47 1700.49 3266.1 1719.16 3275.14 1738.43C3289.59 1768.54 3276.94 1804.67 3246.83 1818.52C3237.8 1822.73 3229.37 1824.54 3220.34 1824.54ZM1408.45 1577.05C1394.6 1577.05 1380.14 1572.23 1368.7 1562C1343.41 1540.32 1341 1502.38 1362.68 1477.09C1376.53 1461.44 1390.98 1445.18 1405.44 1430.13C1428.32 1406.04 1466.86 1405.44 1490.34 1428.92C1514.43 1451.8 1515.03 1490.34 1491.54 1513.82C1478.3 1527.07 1465.65 1541.52 1453.01 1555.98C1442.17 1570.43 1425.31 1577.05 1408.45 1577.05ZM3055.95 1574.04C3039.09 1574.04 3022.83 1566.81 3010.79 1553.57C2998.14 1539.12 2985.5 1525.27 2972.25 1512.02C2948.77 1487.93 2949.37 1450 2973.45 1427.11C2996.94 1403.63 3035.48 1404.23 3058.36 1428.32C3072.81 1443.37 3087.86 1459.03 3101.71 1474.68C3123.39 1499.98 3120.98 1537.91 3096.29 1559.59C3083.65 1569.22 3069.8 1574.04 3055.95 1574.04ZM1634.26 1379.54C1614.38 1379.54 1595.72 1369.91 1583.67 1352.45C1565.61 1324.75 1573.44 1287.41 1601.14 1269.35C1618.6 1257.91 1636.66 1246.47 1655.33 1236.23C1684.23 1219.37 1720.97 1229.61 1737.83 1257.91C1754.69 1286.81 1745.05 1323.54 1716.15 1340.4C1699.89 1350.04 1683.63 1359.67 1667.98 1370.51C1657.14 1376.53 1645.7 1379.54 1634.26 1379.54ZM2828.94 1377.74C2817.5 1377.74 2806.05 1374.73 2796.42 1368.1C2780.76 1357.87 2764.51 1347.63 2747.65 1338.6C2718.74 1321.74 2709.11 1285.01 2725.37 1256.1C2741.62 1227.2 2778.96 1217.56 2807.86 1233.82C2825.93 1244.06 2844.59 1255.5 2862.06 1266.94C2889.75 1285 2897.58 1322.34 2879.52 1350.04C2868.08 1368.1 2848.81 1377.74 2828.94 1377.74ZM1905.23 1251.28C1879.33 1251.28 1855.85 1235.03 1848.02 1209.13C1837.78 1177.22 1855.85 1143.5 1887.16 1133.86C1907.03 1127.24 1928.11 1121.82 1947.98 1116.4C1980.5 1107.97 2013.01 1127.84 2021.44 1159.76C2029.87 1192.27 2010 1224.79 1978.09 1233.22C1960.02 1238.04 1941.36 1242.85 1923.29 1248.88C1917.27 1250.08 1911.25 1251.28 1905.23 1251.28ZM2557.36 1250.08C2551.34 1250.08 2545.32 1249.48 2539.3 1247.07C2521.23 1241.65 2503.17 1236.23 2484.5 1232.02C2451.99 1224.19 2432.72 1191.07 2440.54 1159.15C2448.37 1126.64 2481.49 1107.37 2513.41 1115.2C2533.88 1120.62 2554.35 1126.04 2574.83 1132.06C2606.74 1141.69 2624.2 1175.41 2614.57 1207.33C2606.74 1233.22 2583.26 1250.08 2557.36 1250.08ZM2200.89 1201.31C2168.37 1201.31 2141.87 1175.41 2140.67 1142.9C2139.47 1109.78 2165.96 1082.08 2199.08 1080.87C2220.16 1080.27 2241.83 1080.27 2262.31 1080.87C2295.42 1081.48 2321.92 1109.18 2320.72 1142.9C2320.11 1175.41 2293.02 1201.31 2260.5 1201.31H2258.69C2240.03 1200.7 2220.76 1200.7 2201.49 1201.31H2200.89Z" fill="white"/>
<path d="M2481.49 4466.2H1985.31C1840.8 4466.2 1743.25 4369.26 1743.25 4224.14V3898.97L1740.24 3897.77C1627.03 3863.44 1516.23 3818.28 1410.25 3762.28L1403.63 3758.67L1164.57 3985.08C1132.66 4016.39 1081.48 4057.94 1003.19 4057.94C937.56 4057.94 882.161 4023.62 855.666 4006.76C854.462 4006.16 853.86 4005.55 852.655 4004.95L838.204 3997.73L473.296 3632.82L469.683 3628.6C378.155 3519.01 381.166 3385.93 476.909 3289.59L706.331 3060.17L702.718 3053.54C660.567 2969.84 607.577 2857.24 568.437 2725.97L567.233 2722.96H242.067C75.8719 2722.96 0 2597.71 0 2480.89V1990.73C0 1871.51 72.8611 1746.86 234.842 1737.83H566.63L567.835 1734.21C602.76 1623.42 649.728 1512.02 703.32 1410.25L705.729 1406.04L476.307 1176.62C440.177 1140.49 332.391 1008.61 467.274 839.408L471.49 833.988L829.773 481.726C838.204 473.296 913.473 402.844 1013.43 402.844C1070.64 402.844 1128.44 429.339 1176.01 476.909L1410.86 711.751L1412.66 710.546C1523.46 645.513 1645.1 603.362 1738.43 573.856L1742.64 572.652V242.067C1742.64 75.8719 1867.89 0 1984.71 0H2475.47C2505.58 0 2563.39 5.41949 2618.18 40.3446C2685.62 83.7 2722.36 154.755 2722.36 241.465V566.63L2726.57 567.835C2836.77 602.76 2948.77 649.126 3049.93 703.32L3054.14 705.729L3279.95 479.92C3338.96 411.876 3405.8 396.822 3450.97 396.822C3543.1 396.822 3611.14 457.64 3629.81 476.307L3982.67 829.171C4021.21 867.709 4062.16 934.549 4062.16 1008.01C4062.16 1067.02 4035.66 1123.02 3982.67 1176.01L3753.25 1405.44L3754.45 1407.24C3814.67 1509.61 3855.01 1620.41 3894.76 1727.59L3897.77 1737.23H4222.93C4367.45 1737.23 4465 1834.17 4465 1979.29V2475.47C4465 2619.99 4368.05 2717.54 4222.93 2717.54H3897.77L3896.56 2720.55C3862.24 2833.75 3817.08 2945.15 3761.08 3050.53L3758.67 3054.75L3988.09 3284.17C4046.5 3342.58 4073.6 3414.23 4063.36 3486.49C4056.13 3538.88 4030.24 3588.86 3988.09 3631.01L3643.05 3977.85C3600.3 4032.05 3519.61 4063.36 3457.59 4063.36C3401.59 4063.36 3348 4039.27 3297.42 3991.7C3266.1 3968.22 3226.96 3928.48 3149.89 3850.8C3123.99 3824.91 3095.09 3795.4 3063.78 3763.49L3060.77 3760.48L3056.55 3762.88C2950.57 3818.88 2839.78 3864.65 2726.57 3898.37L2723.56 3899.57V4224.74C2723.56 4369.26 2626.01 4466.2 2481.49 4466.2ZM1984.11 4225.34H2481.49V3721.94L2655.52 3667.74C2754.27 3638.24 2850.62 3598.49 2942.75 3549.72L3104.12 3463.61L3233.59 3593.07C3266.1 3625.59 3295.01 3655.1 3320.9 3681.59C3372.08 3733.98 3425.68 3787.57 3441.33 3799.01L3451.57 3805.64L3459.4 3814.07L3462.41 3817.08L3818.28 3461.2C3819.49 3460 3820.09 3458.79 3821.29 3458.19C3820.69 3456.99 3819.49 3456.39 3818.28 3455.18L3463.01 3099.91L3549.12 2938.53C3597.89 2847 3637.03 2750.05 3667.14 2651.9L3667.74 2650.7L3721.94 2477.88H4225.34V1981.1V1980.5H3721.94L3668.95 1810.69C3631.61 1708.92 3596.09 1613.18 3546.71 1529.48L3544.3 1525.27L3458.19 1363.89L3813.47 1008.61L3816.48 1005.6C3815.27 1004.4 3814.67 1003.19 3813.47 1001.99L3460.6 649.126C3459.4 648.524 3458.79 647.32 3456.99 646.115L3099.31 1002.59L2937.93 916.484C2850.62 870.118 2753.67 829.773 2658.53 799.063L2482.7 755.106V242.067V241.465C2480.29 240.863 2478.48 240.863 2476.07 240.863H1985.31H1984.71V749.084L1811.89 803.278C1730 829.171 1624.02 865.903 1533.7 918.893L1529.48 921.301L1368.1 1007.41L1008.61 647.922C1005 649.728 1001.99 652.137 999.582 653.943L653.341 994.765C650.33 998.378 648.524 1001.39 646.717 1003.8L648.524 1005.6L1003.8 1360.88L917.689 1522.25C870.72 1610.77 829.773 1708.32 799.666 1805.27L746.074 1977.49H248.089C246.885 1977.49 245.68 1978.09 244.476 1978.09C243.874 1981.1 243.272 1984.71 243.272 1989.53V2480.89H746.074L800.268 2654.91C826.763 2742.83 863.494 2831.95 918.893 2943.35L1004.4 3103.52L649.126 3458.79L647.32 3460.6C648.524 3463.01 650.33 3466.02 653.341 3469.63L985.732 3802.02C989.345 3803.83 994.162 3807.44 999.582 3809.85L1365.69 3463.61L1524.66 3548.52C1616.19 3597.29 1713.14 3636.43 1811.29 3666.54L1812.49 3667.14L1985.31 3721.33V4224.74C1984.11 4224.74 1984.11 4225.34 1984.11 4225.34ZM1000.18 652.739L998.98 653.943C999.582 653.341 1000.18 653.341 1000.18 652.739Z" fill="white"/>
<path d="M3184.81 2740.42C3258.88 2580.25 3285.97 2398.39 3260.08 2223.17C3285.97 2399 3258.88 2580.85 3184.81 2740.42ZM4375.28 3902.58C4377.69 3912.22 4380.09 3921.85 4381.9 3932.09C4380.09 3921.85 4378.29 3912.22 4375.28 3902.58Z" fill="white"/>
<path d="M4381.9 3932.09C4380.1 3922.45 4377.69 3912.22 4375.28 3902.58C4373.47 3895.96 4371.66 3889.34 4369.26 3882.71C4353 3837.55 4326.5 3796.6 4290.37 3762.88L3206.49 2759.69L3185.41 2740.42C3259.48 2580.25 3286.58 2398.39 3260.68 2223.17C3231.78 2025.66 3141.46 1847.42 2999.35 1706.51C2739.82 1449.99 2353.83 1372.32 2015.42 1509.01L1930.52 1543.33L2539.3 2145.49C2569.41 2174.99 2585.66 2214.74 2586.27 2256.89C2586.27 2299.04 2570.01 2338.78 2540.5 2368.29L2371.9 2538.7C2342.39 2568.8 2302.65 2585.06 2260.5 2585.66H2259.9C2218.35 2585.66 2178.61 2569.41 2149.1 2539.9L1539.72 1937.74L1506.6 2023.25C1373.52 2362.87 1455.41 2748.25 1714.94 3004.77C1857.05 3145.67 2036.5 3233.59 2234 3260.68C2409.83 3284.17 2591.08 3255.87 2750.66 3179.99L3784.56 4274.72C3841.16 4334.33 3917.64 4368.05 3999.53 4368.65H4003.14C4083.83 4368.65 4159.71 4337.34 4216.91 4279.53L4300.01 4195.83C4357.82 4137.43 4388.53 4059.75 4386.72 3977.85C4386.12 3962.2 4384.91 3946.54 4381.9 3932.09ZM4000.74 4248.22C3951.36 4247.62 3905.59 4227.75 3871.87 4191.62L2775.34 3030.66L2734.4 3052.94C2430.31 3217.93 2045.53 3163.13 1799.25 2919.26C1596.92 2718.74 1519.24 2427.9 1589.7 2156.33L2064.2 2626.01C2116.58 2677.79 2185.83 2706.7 2259.9 2706.7H2261.1C2335.17 2706.1 2405.02 2677.19 2457.41 2624.2L2626.01 2453.79C2733.8 2344.8 2733.19 2168.37 2624.2 2060.58L2149.7 1590.9C2420.07 1517.44 2712.12 1592.1 2914.44 1792.62C3160.73 2036.5 3219.74 2420.07 3057.76 2726.57L3036.08 2767.52L3102.32 2828.94L3123.99 2849.41L4207.88 3852.6C4244.01 3886.33 4264.48 3931.49 4265.69 3980.86C4266.89 4030.24 4248.22 4076.61 4213.3 4111.53L4130.8 4194.63C4096.48 4229.56 4050.11 4248.22 4000.74 4248.22Z" fill="white"/>
</svg>
