<svg width="575" height="575" viewBox="0 0 575 575" fill="none" xmlns="http://www.w3.org/2000/svg">
<path d="M34 259.333C34 153.11 34 99.9987 66.9992 66.9992C99.9987 34 153.11 34 259.333 34H315.667C421.889 34 475.003 34 508 66.9992C541 99.9987 541 153.11 541 259.333V315.667C541 421.889 541 475.003 508 508C475.003 541 421.889 541 315.667 541H259.333C153.11 541 99.9987 541 66.9992 508C34 475.003 34 421.889 34 315.667V259.333Z" stroke="#757575" stroke-width="66.6667"/>
<path fill-rule="evenodd" clip-rule="evenodd" d="M484.658 332.156L484.087 331.584C473.113 320.607 463.646 311.14 455.193 304.017C446.267 296.494 436.55 289.88 424.573 286.266C408.656 281.464 391.677 281.464 375.76 286.266C363.784 289.88 354.066 296.494 345.14 304.017C336.688 311.14 327.221 320.607 316.247 331.584L315.444 332.386C306.8 341.028 301.713 346.073 297.767 349.337L297.198 349.799L296.843 349.16C294.393 344.664 291.542 338.09 286.728 326.855L285.221 323.345L284.602 321.894C274.577 298.499 266.155 278.853 257.824 264.046C249.239 248.791 238.541 234.485 221.867 226.127C207.959 219.154 192.395 216.157 176.893 217.465C158.306 219.034 143.061 228.344 129.424 239.318C118.007 248.509 105.193 261.018 90.3335 275.836V315.664C90.3335 330.218 90.3419 343.405 90.4202 355.41L121.796 324.035C141.207 304.623 154.17 291.717 164.746 283.205C175.193 274.794 179.687 273.763 181.63 273.6C186.797 273.163 191.985 274.163 196.621 276.487C198.364 277.36 202.153 279.988 208.73 291.674C215.388 303.504 222.63 320.303 233.446 345.538L234.95 349.047L235.409 350.12C239.603 359.908 243.498 369.003 247.388 376.135C251.464 383.605 257.384 392.559 267.353 398.727C279.107 406.003 293.125 408.704 306.741 406.313C318.286 404.288 327.108 398.173 333.668 392.75C339.927 387.573 346.921 380.577 354.449 373.045L355.278 372.22C367.282 360.215 375.051 352.481 381.444 347.092C387.565 341.932 390.455 340.673 392.032 340.197C397.336 338.597 402.998 338.597 408.301 340.197C409.879 340.673 412.769 341.932 418.889 347.092C425.283 352.481 433.051 360.215 445.056 372.22L483.092 410.256C484.391 390.038 484.619 364.899 484.658 332.156Z" fill="#757575"/>
<path d="M414.25 203C437.584 203 456.5 184.084 456.5 160.75C456.5 137.416 437.584 118.5 414.25 118.5C390.916 118.5 372 137.416 372 160.75C372 184.084 390.916 203 414.25 203Z" fill="#757575"/>
</svg>
