<svg width="1664" height="1360" viewBox="0 0 1664 1360" fill="none" xmlns="http://www.w3.org/2000/svg">
<path d="M1331.48 1305.92H332.652C317.914 1305.92 305.837 1318.03 305.837 1332.74C305.837 1347.5 317.914 1359.55 332.652 1359.55H1331.54C1346.3 1359.55 1358.35 1347.5 1358.35 1332.74C1358.35 1318.03 1346.36 1305.92 1331.48 1305.92Z" fill="white"/>
<path d="M1653.26 320.866C1643.89 313.825 1631.11 313.716 1621.62 320.479L1189.96 628.007C1179.91 635.128 1176.08 648.119 1180.53 659.589C1184.67 670.087 1186.77 680.823 1186.77 691.38C1186.77 739.399 1147.65 778.529 1099.62 778.529C1051.54 778.529 1012.48 739.409 1012.48 691.38C1012.48 645.427 1048.67 607.4 1094.86 604.887C1103.81 604.341 1111.84 599.464 1116.49 591.797C1121.05 584.07 1121.47 574.755 1117.65 566.601L856.191 15.2647C851.741 5.89931 842.296 0 831.948 0C821.549 0 812.154 5.89931 807.705 15.2647L546.04 567.078C542.296 574.904 542.664 584.18 547.004 591.797C551.403 599.524 559.229 604.42 567.979 605.205C613.227 609.177 647.292 646.341 647.292 691.38C647.292 739.399 608.191 778.529 560.153 778.529C512.094 778.529 473.004 739.409 473.004 691.38C473.004 682.76 474.653 673.623 478.089 663.522C481.863 652.419 477.98 640.114 468.555 633.301L42.7425 320.707C33.2282 313.765 20.4265 313.765 10.8724 320.757C1.44742 327.729 -2.3762 340.004 1.49707 351.108L308.956 1236.47C312.65 1247.26 322.83 1254.48 334.251 1254.48H1329.6C1341.07 1254.48 1351.19 1247.25 1354.95 1236.47L1662.38 351.108C1666.46 340.054 1662.64 327.888 1653.26 320.866ZM1310.69 1200.87H353.518L80.5219 414.977L422.155 665.767C420.447 674.437 419.533 682.918 419.533 691.43C419.533 769.044 482.687 832.209 560.312 832.209C637.897 832.209 701.091 769.054 701.091 691.43C701.091 630.937 663.381 579.462 608.996 559.788L832.107 89.4032L1054.53 558.557C998.648 577.406 958.902 629.994 958.902 691.479C958.902 769.094 1022.06 832.258 1099.68 832.258C1177.25 832.258 1240.46 769.104 1240.46 691.479C1240.46 681.19 1239.26 670.852 1236.84 660.662L1584.29 413.15L1310.69 1200.87Z" fill="white"/>
<path d="M843.577 252.756C830.16 246.529 814.25 252.15 807.854 265.458L687.792 518.761C682.797 529.209 685.17 541.881 693.681 549.767C732.931 586.613 754.72 636.816 754.72 691.38C754.72 706.148 766.737 718.195 781.535 718.195C796.333 718.195 808.35 706.148 808.35 691.38C808.35 628.583 785.786 570.136 744.253 524.859L856.349 288.579C862.636 275.112 856.985 259.092 843.577 252.756Z" fill="white"/>
</svg>
