<svg width="496" height="323" viewBox="0 0 496 323" fill="none" xmlns="http://www.w3.org/2000/svg">
<path d="M454.615 297.6V12.4C454.615 5.58 449.035 0 442.215 0H53.785C46.965 0 41.385 5.58 41.385 12.4V297.6C41.385 297.6 455.623 297.6 454.615 297.6Z" fill="#0B3249"/>
<path d="M496 297.6H0V305.893H496V297.6Z" fill="#D8D8D8"/>
<path d="M471.2 322.4H24.8L0 305.893H496L471.2 322.4Z" fill="#999999"/>
<path d="M157.093 41.695C161.672 41.695 165.385 37.9823 165.385 33.4025C165.385 28.8227 161.672 25.11 157.093 25.11C152.513 25.11 148.8 28.8227 148.8 33.4025C148.8 37.9823 152.513 41.695 157.093 41.695Z" fill="white"/>
<path d="M124 41.695C128.58 41.695 132.293 37.9823 132.293 33.4025C132.293 28.8227 128.58 25.11 124 25.11C119.42 25.11 115.708 28.8227 115.708 33.4025C115.708 37.9823 119.42 41.695 124 41.695Z" fill="white"/>
<path d="M90.985 41.695C95.5648 41.695 99.2775 37.9823 99.2775 33.4025C99.2775 28.8227 95.5648 25.11 90.985 25.11C86.4052 25.11 82.6925 28.8227 82.6925 33.4025C82.6925 37.9823 86.4052 41.695 90.985 41.695Z" fill="white"/>
<path d="M413.385 29.295H181.893V37.5875H413.385V29.295Z" fill="#999999"/>
<path d="M231.647 140.895H99.355V165.695H231.647V140.895Z" fill="#FF6600"/>
<path d="M231.647 190.495H99.355V215.295H231.647V190.495Z" fill="#999999"/>
<path d="M231.647 91.295H99.355V116.095H231.647V91.295Z" fill="#999999"/>
<path d="M396.955 140.895H264.662V165.695H396.955V140.895Z" fill="#FF6600"/>
<path d="M396.955 190.495H264.662V215.295H396.955V190.495Z" fill="#999999"/>
<path d="M396.955 91.295H264.662V116.095H396.955V91.295Z" fill="#999999"/>
<path d="M107.647 240.095H99.355V248.387H107.647V240.095Z" fill="white"/>
<path d="M124.155 240.095H115.862V248.387H124.155V240.095Z" fill="white"/>
<path d="M140.662 240.095H132.37V248.387H140.662V240.095Z" fill="white"/>
<path d="M157.247 240.095H148.955V248.387H157.247V240.095Z" fill="white"/>
<path d="M272.955 240.095H264.662V248.387H272.955V240.095Z" fill="white"/>
<path d="M289.462 240.095H281.17V248.387H289.462V240.095Z" fill="white"/>
<path d="M306.048 240.095H297.755V248.387H306.048V240.095Z" fill="white"/>
<path d="M322.555 240.095H314.262V248.387H322.555V240.095Z" fill="white"/>
<path opacity="0.2" d="M330.77 0.309998H53.63C46.81 0.309998 41.23 5.89 41.23 12.71V147.173L330.77 0.309998Z" fill="white"/>
</svg>
