<svg width="450" height="586" viewBox="0 0 450 586" fill="none" xmlns="http://www.w3.org/2000/svg">
<path d="M429.945 586H19.1091C8.55652 586 0 577.445 0 566.891V19.1091C0 8.55537 8.55537 0 19.1091 0H429.947C440.499 0 449.056 8.55537 449.056 19.1091V566.892C449.054 577.445 440.499 586 429.945 586Z" fill="#0B3249" fill-opacity="0.69"/>
<path d="M429.946 0H224.527V586H429.946C440.498 586 449.055 577.445 449.055 566.891V19.1091C449.055 8.55537 440.499 0 429.946 0Z" fill="#0B3249"/>
<path d="M292.542 101.024H156.514C145.961 101.024 137.405 92.469 137.405 81.9153V0H311.651V81.9153C311.651 92.469 303.096 101.024 292.542 101.024Z" fill="#FF7058"/>
<path d="M334.084 219.905H114.97C104.418 219.905 95.8613 211.349 95.8613 200.795C95.8613 190.243 104.417 181.686 114.97 181.686H334.083C344.636 181.686 353.192 190.242 353.192 200.795C353.192 211.348 344.637 219.905 334.084 219.905Z" fill="#CDD6E0"/>
<path d="M334.084 343.512H114.97C104.418 343.512 95.8613 334.956 95.8613 324.403C95.8613 313.849 104.417 305.293 114.97 305.293H334.083C344.636 305.293 353.192 313.849 353.192 324.403C353.192 334.956 344.637 343.512 334.084 343.512Z" fill="#CDD6E0"/>
<path d="M334.084 467.121H114.97C104.418 467.121 95.8613 458.566 95.8613 448.012C95.8613 437.458 104.417 428.903 114.97 428.903H334.083C344.636 428.903 353.192 437.458 353.192 448.012C353.192 458.566 344.637 467.121 334.084 467.121Z" fill="#CDD6E0"/>
<path d="M224.527 0V101.024H292.542C303.095 101.024 311.651 92.469 311.651 81.9153V0H224.527Z" fill="#F1543F"/>
<path d="M334.084 181.686H224.527V219.903H334.084C344.637 219.903 353.193 211.348 353.193 200.794C353.192 190.243 344.637 181.686 334.084 181.686Z" fill="#AEB6BD"/>
<path d="M334.084 305.295H224.527V343.512H334.084C344.637 343.512 353.193 334.956 353.193 324.403C353.193 313.849 344.637 305.295 334.084 305.295Z" fill="#AEB6BD"/>
<path d="M334.084 428.904H224.527V467.121H334.084C344.637 467.121 353.193 458.566 353.193 448.012C353.193 437.458 344.637 428.904 334.084 428.904Z" fill="#AEB6BD"/>
</svg>
