<svg width="545" height="543" viewBox="0 0 545 543" fill="none" xmlns="http://www.w3.org/2000/svg">
<path d="M340.163 393.536L313.667 367.039L492.008 188.698L464.275 160.965L490.772 134.469L545 188.698L340.163 393.536Z" fill="#595959"/>
<path d="M530.247 12.3264C546.682 28.7615 546.682 55.4101 530.247 71.8453L504.562 97.5305L445.044 38.0116L470.729 12.3264C487.164 -4.10879 513.812 -4.10879 530.247 12.3264Z" fill="#FFD15C"/>
<path d="M530.247 12.3264C546.682 28.7615 546.682 55.4101 530.247 71.8453L504.561 97.5305L474.802 67.7716L530.247 12.3264Z" fill="#F8B64C"/>
<path d="M0 542.573L41.9426 457.609L84.9646 500.63L0 542.573Z" fill="#818181"/>
<path d="M0 542.573L63.4531 479.12L84.9646 500.63L0 542.573Z" fill="#595959"/>
<path d="M57.4965 485.077L83.8172 511.398L200.355 440.849L534.765 106.438L485.45 57.1228L436.135 7.80774L101.725 342.218L31.1758 458.756L57.4965 485.077Z" fill="#0B3249"/>
<path d="M57.4966 485.077L83.8173 511.398L200.355 440.849L534.765 106.438L485.45 57.1228L57.4966 485.077Z" fill="#112B3B"/>
<path d="M31.1758 458.756L57.4965 485.077L83.8172 511.398L200.355 440.849L101.725 342.218L31.1758 458.756Z" fill="#112B3B"/>
<path d="M57.4963 485.077L83.8171 511.398L200.354 440.849L151.039 391.534L57.4963 485.077Z" fill="#112B3B"/>
</svg>
