<svg width="4365" height="3758" viewBox="0 0 4365 3758" fill="none" xmlns="http://www.w3.org/2000/svg">
<path d="M1783.14 3456.14C1710.73 3456.14 1651.58 3396.99 1651.58 3324.58C1651.58 3252.17 1710.73 3193.03 1783.14 3193.03C1855.54 3193.03 1914.69 3252.17 1914.69 3324.58C1915.2 3396.99 1855.54 3456.14 1783.14 3456.14Z" fill="white"/>
<path d="M1113.12 1097.31C1043.78 1097.31 987.176 1153.91 987.176 1223.26C987.176 1292.61 1043.78 1349.21 1113.12 1349.21C1182.47 1349.21 1239.07 1292.61 1239.07 1223.26C1239.07 1153.91 1182.47 1097.31 1113.12 1097.31ZM3673.87 2237.46C3523.95 2237.46 3401.58 2359.84 3401.58 2509.75C3401.58 2659.66 3523.95 2782.04 3673.87 2782.04C3823.78 2782.04 3946.15 2659.66 3946.15 2509.75C3946.15 2359.84 3823.78 2237.46 3673.87 2237.46Z" fill="white"/>
<path d="M3673.86 2135.48C3467.35 2135.48 3299.59 2303.24 3299.59 2509.75C3299.59 2716.26 3467.35 2884.02 3673.86 2884.02C3880.38 2884.02 4048.13 2716.26 4048.13 2509.75C4048.13 2303.24 3880.38 2135.48 3673.86 2135.48ZM3401.57 2509.75C3401.57 2359.84 3523.95 2237.46 3673.86 2237.46C3823.78 2237.46 3946.15 2359.84 3946.15 2509.75C3946.15 2659.66 3823.78 2782.04 3673.86 2782.04C3523.44 2782.04 3401.57 2659.66 3401.57 2509.75Z" fill="white"/>
<path d="M1438.95 2075.31C1380.82 2075.31 1333.91 2122.22 1333.91 2180.35C1333.91 2238.48 1380.82 2285.39 1438.95 2285.39C1497.08 2285.39 1543.99 2238.48 1543.99 2180.35C1543.99 2122.22 1496.57 2075.31 1438.95 2075.31ZM228.435 1439.46C159.088 1439.46 102.488 1496.06 102.488 1565.41C102.488 1634.75 159.088 1691.35 228.435 1691.35C297.782 1691.35 354.381 1634.75 354.381 1565.41C354.381 1496.06 297.782 1439.46 228.435 1439.46Z" fill="white"/>
<path d="M550.187 1405.3C541.009 1378.78 512.455 1364.51 485.43 1373.17L390.077 1405.3C348.775 1363.49 291.666 1337.48 227.928 1337.48C102.491 1337.48 0 1439.46 0 1565.41C0 1691.35 101.981 1793.34 227.928 1793.34C353.874 1793.34 455.855 1691.35 455.855 1565.41C455.855 1540.93 451.776 1516.97 444.637 1495.04L518.064 1470.57C544.579 1460.88 558.856 1432.32 550.187 1405.3ZM228.437 1690.84C159.09 1690.84 102.491 1634.24 102.491 1564.9C102.491 1495.55 159.09 1438.95 228.437 1438.95C297.785 1438.95 354.384 1495.55 354.384 1564.9C354.384 1634.24 297.785 1690.84 228.437 1690.84ZM1253.86 1470.57L1236.01 1414.48C1298.73 1373.68 1340.54 1303.32 1340.54 1223.26C1340.54 1097.82 1238.56 995.334 1112.61 995.334C986.666 995.334 884.685 1097.31 884.685 1223.26C884.685 1349.21 986.666 1451.19 1112.61 1451.19C1121.79 1451.19 1130.97 1450.68 1139.64 1449.66L1155.95 1501.67C1162.58 1523.6 1182.98 1537.36 1204.4 1537.36C1209.49 1537.36 1214.59 1536.34 1219.69 1534.81C1247.74 1526.15 1262.52 1497.08 1253.86 1470.57ZM1159.52 1340.03C1157.48 1340.54 1155.44 1341.56 1153.91 1342.07C1141.17 1346.66 1127.4 1349.21 1113.12 1349.21C1043.78 1349.21 987.176 1292.61 987.176 1223.26C987.176 1153.91 1043.78 1097.31 1113.12 1097.31C1182.47 1097.31 1239.07 1153.91 1239.07 1223.26C1239.07 1275.78 1205.93 1321.16 1159.52 1340.03ZM1297.71 1828.52C1302.81 1828.52 1307.91 1827.5 1313.01 1825.97C1340.03 1817.3 1354.82 1788.75 1346.15 1762.23L1315.55 1664.84C1306.89 1637.81 1278.33 1623.03 1251.82 1631.7C1224.79 1640.36 1210 1668.92 1218.67 1695.43L1249.27 1792.83C1255.9 1814.75 1275.78 1828.52 1297.71 1828.52ZM1807.61 1867.27L1766.82 1898.38C1744.39 1915.2 1739.8 1947.33 1757.13 1969.76C1767.33 1983.02 1782.63 1989.65 1797.93 1989.65C1808.63 1989.65 1819.34 1986.08 1828.52 1979.45L1869.31 1948.35C1891.75 1931.52 1896.34 1899.4 1879 1876.96C1862.17 1854.52 1830.05 1850.44 1807.61 1867.27ZM2284.88 1568.47C2268.06 1546.03 2235.93 1541.44 2213.5 1558.78L2172.71 1589.88C2150.27 1606.71 2145.68 1638.83 2163.02 1661.27C2173.22 1674.53 2188.51 1681.16 2203.81 1681.16C2214.52 1681.16 2225.23 1677.59 2234.4 1670.96L2275.2 1639.85C2297.63 1623.03 2302.22 1590.9 2284.88 1568.47ZM2010.56 1712.77L1969.76 1743.87C1947.33 1760.7 1942.74 1792.83 1960.07 1815.26C1970.27 1828.52 1985.57 1835.15 2000.87 1835.15C2011.58 1835.15 2022.28 1831.58 2031.46 1824.95L2072.25 1793.85C2094.69 1777.02 2099.28 1744.89 2081.94 1722.46C2065.12 1700.53 2032.99 1695.94 2010.56 1712.77ZM1604.67 2021.77L1586.31 2035.54C1548.58 1997.3 1496.57 1973.33 1438.95 1973.33C1430.28 1973.33 1422.12 1973.84 1413.97 1974.86L1408.36 1956.51C1399.69 1929.48 1371.13 1914.69 1344.11 1923.36C1317.08 1932.03 1302.3 1960.58 1310.97 1987.61L1318.61 2012.59C1266.09 2050.33 1231.93 2111.52 1231.93 2180.86C1231.93 2295.08 1324.73 2387.88 1438.95 2387.88C1553.17 2387.88 1645.97 2295.08 1645.97 2180.86C1645.97 2161.49 1643.42 2142.62 1638.32 2124.77L1666.37 2103.36C1688.81 2086.53 1693.39 2054.41 1676.06 2031.97C1659.23 2009.03 1627.11 2004.44 1604.67 2021.77ZM1333.91 2180.35C1333.91 2122.22 1380.82 2075.31 1438.95 2075.31C1497.08 2075.31 1543.99 2122.22 1543.99 2180.35C1543.99 2238.48 1497.08 2285.39 1438.95 2285.39C1380.82 2285.39 1333.91 2238.48 1333.91 2180.35Z" fill="white"/>
<path d="M3978.79 1406.32H2974.78V386.508C2974.78 173.368 2801.42 0 2588.28 0H977.487C764.346 0 590.979 173.368 590.979 386.508V3371.49C590.979 3584.63 764.346 3758 977.487 3758H3978.28C4191.42 3758 4364.79 3586.67 4364.79 3376.08V1788.75C4365.3 1577.65 4191.93 1406.32 3978.79 1406.32ZM2588.79 3554.04H977.487C877.035 3554.04 794.941 3472.45 794.941 3371.49V1376.74L807.688 1372.66C834.203 1363.49 848.481 1334.93 839.812 1307.91C833.183 1288.02 814.827 1274.76 795.45 1273.23V387.018C795.45 286.567 877.035 204.472 977.996 204.472H2588.79C2689.24 204.472 2771.33 286.057 2771.33 387.018V1509.32C2761.64 1510.34 2751.45 1514.42 2743.29 1521.05C2721.87 1539.4 2719.32 1571.53 2737.68 1592.94L2770.82 1631.7L2771.33 1632.21V3372C2770.82 3472.45 2689.24 3554.04 2588.79 3554.04ZM4161.33 3376.08C4161.33 3474.49 4079.75 3554.04 3978.79 3554.04H2929.4C2958.47 3499.48 2975.29 3437.78 2975.29 3371.49V1843.31C2987.02 1843.31 2998.75 1839.23 3007.93 1831.07C3029.34 1812.71 3031.89 1780.59 3013.54 1759.17L2980.39 1720.42C2978.86 1718.38 2976.82 1716.85 2974.78 1714.81V1610.28H3978.79C4079.24 1610.28 4161.33 1690.34 4161.33 1788.24V3376.08Z" fill="white"/>
<path d="M3311.32 2108.46C3292.97 2087.04 3260.84 2084.49 3239.42 2102.85C3218.01 2121.2 3215.46 2153.33 3233.82 2174.74L3266.96 2213.5C3277.16 2225.22 3291.44 2231.34 3305.71 2231.34C3317.44 2231.34 3329.17 2227.26 3338.86 2219.11C3360.27 2200.75 3362.82 2168.62 3344.47 2147.21L3311.32 2108.46ZM3145.6 1914.69C3127.25 1893.28 3095.12 1890.73 3073.71 1909.08C3052.29 1927.44 3049.74 1959.56 3068.1 1980.98L3101.24 2019.73C3111.44 2031.46 3125.72 2037.58 3139.99 2037.58C3151.72 2037.58 3163.45 2033.5 3173.14 2025.34C3194.55 2006.99 3197.1 1974.86 3178.75 1953.44L3145.6 1914.69Z" fill="white"/>
<path d="M2091.63 428.321H1474.64C1446.6 428.321 1423.65 405.375 1423.65 377.33C1423.65 349.286 1446.6 326.34 1474.64 326.34H2091.63C2119.67 326.34 2142.62 349.286 2142.62 377.33C2142.62 405.375 2119.67 428.321 2091.63 428.321Z" fill="white"/>
<path d="M2619.89 923.439C2448.56 923.439 2309.36 1062.64 2309.36 1233.97C2309.36 1405.3 2448.56 1544.5 2619.89 1544.5C2791.22 1544.5 2930.42 1405.3 2930.42 1233.97C2930.42 1062.64 2791.22 923.439 2619.89 923.439Z" fill="white"/>
<path d="M2619.89 821.457C2392.47 821.457 2207.38 1006.55 2207.38 1233.97C2207.38 1461.39 2392.47 1646.48 2619.89 1646.48C2847.31 1646.48 3032.41 1461.39 3032.41 1233.97C3032.41 1006.55 2847.31 821.457 2619.89 821.457ZM2309.87 1233.97C2309.87 1062.64 2449.07 923.438 2620.4 923.438C2791.73 923.438 2930.93 1062.64 2930.93 1233.97C2930.93 1405.3 2791.73 1544.5 2620.4 1544.5C2449.07 1544.5 2309.87 1405.3 2309.87 1233.97Z" fill="white"/>
</svg>
