<svg width="4263" height="3763" viewBox="0 0 4263 3763" fill="none" xmlns="http://www.w3.org/2000/svg">
<path d="M2679.68 1835.36L2906.56 1348.99H2583.84L2356.97 1835.36H2679.68ZM1677.37 1348.99L1450.5 1835.36H1773.22L2000.09 1348.99H1677.37ZM2453.32 1348.99H2130.61L1903.73 1835.36H2226.45L2453.32 1348.99ZM1050.8 1348.99V1835.36H1319.99L1546.86 1348.99H1050.8ZM3291.98 1835.36V1348.99H3037.07L2810.2 1835.36H3291.98Z" fill="white"/>
<path d="M2171.39 3551.42C1761.49 3374.01 1464.77 3086.98 1267.98 2799.44C1161.43 2763.75 1058.96 2725.51 961.07 2686.25C1002.37 2763.75 1048.76 2841.24 1100.25 2915.67C1282.26 3180.27 1608.54 3540.72 2129.07 3754.33C2142.84 3759.94 2157.11 3763 2171.39 3763C2185.66 3763 2199.94 3760.45 2213.7 3754.84C2592.5 3598.84 2868.32 3365.85 3060.52 3148.15C2975.38 3144.08 2887.69 3137.45 2798.47 3128.78C2629.72 3293.96 2421.71 3443.34 2171.39 3551.42ZM4068.95 2103.02C4031.22 2069.37 3987.89 2035.21 3938.94 2001.56C3839.53 1931.72 3718.7 1861.87 3580.54 1794.58V738.223C3580.54 676.025 3530.57 625.552 3469.4 625.552C3140.56 624.023 2845.88 535.823 2593.01 363.503C2396.73 229.93 2291.2 88.7091 2263.16 48.4331C2242.25 18.3536 2208.1 0 2171.39 0C2135.19 0 2100.52 17.8438 2079.62 47.9234C2051.58 88.1993 1945.54 229.42 1749.25 362.994C1495.87 535.314 1200.69 623.513 872.36 625.042C811.182 625.552 761.219 676.025 761.219 737.713V1209.81C698.001 1213.89 638.352 1219.5 582.271 1227.14C456.345 1243.97 349.282 1269.46 262.103 1303.11C114.254 1360.72 28.0942 1441.27 5.66204 1542.72C-15.7505 1639.59 24.0157 1743.59 122.921 1852.7L123.431 1853.2C125.47 1855.24 127 1857.28 129.039 1859.32C221.317 1958.23 361.008 2059.17 544.544 2159.61C556.78 2166.24 569.526 2173.37 582.271 2180C650.587 2216.2 724.002 2251.89 800.985 2286.04C823.417 2370.67 855.026 2458.87 894.283 2548.09C985.031 2587.35 1080.88 2625.08 1181.31 2661.27C1127.27 2567.47 1083.43 2475.19 1049.78 2388.52C1331.71 2496.09 1650.86 2590.92 1986.83 2665.35C2364.1 2748.96 2733.21 2799.95 3063.07 2815.75C3011.58 2889.67 2953.97 2963.09 2889.22 3034.46C2976.4 3041.6 3061.54 3046.7 3143.62 3049.25C3180.33 3002.85 3212.96 2957.99 3242.02 2915.67C3263.43 2884.58 3283.82 2852.97 3303.7 2820.85C3374.57 2820.34 3442.38 2818.3 3508.14 2813.71C3678.93 2802.49 3823.72 2778.53 3939.45 2742.34C3964.94 2734.18 3988.91 2726.02 4011.34 2716.84C4055.69 2699 4094.44 2678.61 4127.07 2656.68C4110.24 2628.13 4088.83 2600.6 4065.38 2574.6C4031.73 2597.04 3989.42 2616.92 3939.45 2634.25C3828.82 2673 3679.95 2700.02 3501.51 2711.75C3457.16 2714.8 3411.28 2716.84 3363.86 2717.86C3500.5 2469.07 3581.05 2212.63 3581.05 2013.8V1908.27C3723.8 1980.66 3845.14 2055.09 3939.45 2128C3961.88 2145.33 3982.28 2162.16 4001.65 2179.49C4084.75 2253.42 4179.07 2362.01 4157.66 2459.89C4154.09 2475.19 4147.97 2489.46 4139.3 2503.74C4165.3 2531.78 4187.23 2559.82 4204.56 2587.35C4231.07 2555.23 4248.4 2520.05 4257.07 2481.82C4282.56 2364.56 4219.34 2237.1 4068.95 2103.02ZM593.487 2069.37C589.919 2067.33 585.84 2065.29 582.271 2063.25C409.441 1967.91 278.417 1871.05 197.355 1781.32C196.845 1781.32 196.845 1781.83 196.336 1781.83C164.217 1749.2 143.314 1713.51 135.667 1699.75C107.117 1650.3 95.9006 1604.92 105.077 1564.14C129.549 1452.48 303.908 1368.87 582.271 1329.62C637.842 1321.97 697.491 1315.85 761.219 1311.77V2014.31C761.219 2060.19 765.807 2109.65 773.965 2161.14C710.747 2131.06 650.078 2100.47 593.487 2069.37ZM3377.12 2014.31C3377.12 2175.92 3298.1 2442.05 3128.32 2716.33C2789.8 2704.61 2404.38 2653.12 2009.26 2565.43C1645.76 2484.87 1302.65 2380.87 1006.95 2262.08C978.913 2166.24 965.148 2081.1 965.148 2014.31V826.932C1299.08 810.108 1600.9 711.202 1864.47 531.745C2005.7 435.898 2107.15 334.444 2171.9 260.519C2236.14 334.444 2337.59 435.388 2478.3 531.745C2741.37 711.202 3043.18 810.108 3377.12 826.932V2014.31Z" fill="white"/>
<path d="M759.689 1542.21C555.25 1554.96 387.518 1586.57 262.102 1635.51C213.159 1654.37 170.844 1676.29 135.666 1700.26C150.961 1726.77 171.863 1753.79 197.354 1782.34C305.437 1710.96 500.699 1662.53 759.689 1645.19V1542.21Z" fill="white"/>
<path d="M135.159 1699.75C142.806 1713.51 164.219 1749.2 195.828 1781.83C196.337 1781.83 196.337 1781.32 196.847 1781.32C171.866 1753.28 150.963 1726.26 135.159 1699.75C135.669 1699.75 135.669 1699.75 135.159 1699.75ZM4204.05 2587.35C4186.21 2559.82 4164.29 2531.78 4138.8 2503.74C4117.89 2481.3 4094.95 2458.36 4068.95 2435.42C3952.71 2331.93 3782.94 2225.37 3574.42 2123.92C3572.38 2137.68 3563.21 2198.86 3557.09 2229.45C3744.7 2322.75 3896.63 2419.11 4001.14 2511.89C4022.56 2530.76 4044.48 2552.17 4064.87 2574.6C4088.32 2600.09 4109.74 2628.13 4126.56 2656.68C4152.56 2701.04 4166.84 2747.94 4157.15 2792.3C4127.58 2925.36 3882.35 3019.68 3501.52 3044.66C3390.38 3051.8 3270.06 3053.32 3143.62 3049.25C3061.54 3046.7 2976.4 3041.6 2889.22 3034.46C2612.9 3011.52 2314.14 2965.64 2009.27 2897.83C1715.1 2832.57 1434.7 2752.02 1181.82 2660.76C1081.39 2624.56 985.543 2586.84 894.794 2547.58C786.712 2500.68 685.767 2451.73 593.999 2401.77C259.046 2218.75 76.5291 2029.6 105.589 1896.54C109.158 1881.24 115.276 1866.46 123.943 1852.69L123.433 1852.18C118.844 1847.59 89.7845 1818.02 58.1755 1769.08C31.6647 1801.2 14.3308 1836.38 5.66378 1874.62C-16.2586 1973.52 25.5468 2080.07 129.551 2191.21C221.829 2290.12 361.52 2391.07 545.056 2491.5C669.453 2559.31 809.654 2625.07 962.091 2686.25C1059.47 2725.51 1161.94 2763.24 1269 2799.43C1493.33 2874.89 1735.49 2942.18 1987.34 2997.75C2266.73 3059.44 2541.52 3103.8 2798.98 3128.78C2888.71 3137.45 2976.4 3144.07 3061.03 3148.15C3135.97 3151.72 3208.37 3153.76 3278.72 3153.76C3358.26 3153.76 3435.24 3151.21 3508.14 3146.62C3716.66 3132.86 3885.92 3100.23 4011.34 3049.76C4152.56 2992.66 4235.15 2913.63 4257.07 2814.73C4272.88 2742.33 4255.03 2666.37 4204.05 2587.35Z" fill="white"/>
<path d="M123.431 1852.7C123.431 1852.7 122.921 1852.7 122.921 1852.19C122.921 1852.19 123.431 1852.19 123.431 1852.7Z" fill="white"/>
</svg>
