<svg width="3300" height="3022" viewBox="0 0 3300 3022" fill="none" xmlns="http://www.w3.org/2000/svg">
<path d="M2368.34 392.668C2368.34 423.933 2380.02 453.917 2400.82 476.024C2421.62 498.131 2449.83 510.551 2479.24 510.551C2508.65 510.551 2536.86 498.131 2557.66 476.024C2578.46 453.917 2590.14 423.933 2590.14 392.668C2590.14 361.404 2578.46 331.42 2557.66 309.312C2536.86 287.205 2508.65 274.785 2479.24 274.785C2449.83 274.785 2421.62 287.205 2400.82 309.312C2380.02 331.42 2368.34 361.404 2368.34 392.668Z" fill="white"/>
<path d="M2368.34 1318.48C2368.34 1349.75 2380.02 1379.73 2400.82 1401.84C2421.62 1423.95 2449.83 1436.37 2479.24 1436.37C2508.65 1436.37 2536.86 1423.95 2557.66 1401.84C2578.46 1379.73 2590.14 1349.75 2590.14 1318.48C2590.14 1287.22 2578.46 1257.23 2557.66 1235.13C2536.86 1213.02 2508.65 1200.6 2479.24 1200.6C2449.83 1200.6 2421.62 1213.02 2400.82 1235.13C2380.02 1257.23 2368.34 1287.22 2368.34 1318.48Z" fill="white"/>
<path d="M2727.74 0H287.52C128.973 0 0 128.973 0 287.52V498.23C0 656.777 128.973 785.75 287.52 785.75H2727.74C2886.29 785.75 3015.26 656.777 3015.26 498.23V287.52C3015.26 128.973 2886.29 0 2727.74 0ZM2850.96 498.23C2850.96 566.003 2795.51 621.453 2727.74 621.453H287.52C219.747 621.453 164.297 566.003 164.297 498.23V287.52C164.297 219.747 219.747 164.297 287.52 164.297H2727.74C2795.51 164.297 2850.96 219.747 2850.96 287.52V498.23Z" fill="white"/>
<path d="M1381.33 351.594H398.01C375.419 351.594 356.936 370.077 356.936 392.668C356.936 415.259 375.419 433.742 398.01 433.742H1381.33C1403.92 433.742 1422.4 415.259 1422.4 392.668C1422.4 370.077 1403.92 351.594 1381.33 351.594Z" fill="white"/>
<path d="M1887.77 2554.82C1875.04 2535.92 1863.54 2516.21 1852.86 2496.08L1760.85 2498.54H1756.74C1730.46 2498.54 1704.17 2492.38 1680.76 2480.06C1676.24 2478.01 1672.13 2475.54 1668.02 2472.67H287.52C219.747 2472.67 164.297 2417.22 164.297 2349.45V2138.73C164.297 2070.96 219.747 2015.51 287.52 2015.51H1640.92C1648.72 2009.76 1657.34 2004.83 1666.38 2000.73C1686.1 1991.69 1707.46 1986.76 1729.64 1986.35L1817.12 1983.88C1818.77 1979.37 1820.41 1975.26 1822.05 1970.74C1829.03 1953.49 1836.43 1936.24 1845.05 1920.22C1855.32 1900.09 1867.23 1879.97 1880.38 1860.25L1874.22 1850.8H287.52C128.973 1850.8 0 1979.78 0 2138.32V2349.03C0 2507.58 128.973 2636.55 287.52 2636.55H1929.26L1937.47 2620.54C1919.4 2600 1902.97 2577.82 1887.77 2554.82Z" fill="white"/>
<path d="M3299.49 2295.64L3285.12 2101.36C3283.06 2073.02 3273.2 2045.5 3256.77 2021.67C3241.17 1999.08 3219.81 1980.6 3195.57 1968.28C3172.16 1956.36 3145.87 1949.79 3119.59 1949.79H3115.48L3023.47 1952.26C3000.06 1907.9 2971.72 1866 2938.86 1827.39L2976.65 1753.87C2986.51 1734.56 2992.26 1713.62 2993.49 1691.85C2994.72 1671.31 2991.44 1650.77 2984.45 1631.06C2979.11 1616.27 2971.72 1602.3 2962.68 1589.57C2995.95 1542.75 3015.26 1485.65 3015.26 1424.04V1213.33C3015.26 1054.79 2886.29 925.812 2727.74 925.812H287.52C128.973 925.812 0 1054.79 0 1213.33V1424.04C0 1582.59 128.973 1711.56 287.52 1711.56H1803.57C1803.98 1717.31 1804.8 1722.65 1806.03 1728.4C1810.14 1749.76 1818.77 1769.89 1831.09 1787.96L1874.22 1851.21L1880.38 1860.66C1867.23 1880.38 1855.32 1900.09 1845.05 1920.63C1836.84 1936.65 1829.03 1953.9 1822.05 1971.15C1820.41 1975.67 1818.77 1979.78 1817.12 1984.3L1729.64 1986.76C1707.46 1987.17 1686.1 1992.1 1666.38 2001.14C1657.34 2005.24 1648.72 2010.17 1640.92 2015.92C1631.88 2022.49 1623.25 2029.89 1615.86 2038.51C1587.52 2070.14 1573.55 2110.8 1576.84 2153.11L1591.22 2347.39C1593.27 2375.73 1603.13 2403.25 1619.56 2427.08C1632.29 2445.56 1649.13 2461.17 1668.02 2473.49C1672.13 2475.95 1676.24 2478.42 1680.76 2480.88C1704.17 2492.79 1730.46 2499.37 1756.74 2499.37H1760.85L1852.86 2496.9C1863.54 2517.03 1875.04 2536.74 1887.77 2555.64C1902.97 2578.64 1919.4 2600.41 1937.47 2621.77L1929.26 2637.79L1899.68 2695.29C1889.82 2714.59 1884.07 2735.54 1882.84 2757.31C1881.61 2777.85 1884.9 2798.39 1891.88 2818.1C1905.84 2857.94 1934.6 2890.39 1972.79 2910.11L2153.52 3002.94C2177.34 3014.85 2203.63 3021.42 2229.51 3021.42C2245.12 3021.42 2260.31 3019.37 2275.1 3014.85C2295.23 3009.1 2313.71 2999.24 2329.73 2986.51C2346.57 2972.95 2360.54 2956.11 2370.39 2936.81L2408.18 2863.28C2427.08 2864.93 2445.97 2865.75 2464.86 2865.75C2496.49 2865.75 2527.71 2863.69 2558.92 2859.18L2610.68 2935.16C2626.29 2958.16 2647.64 2977.06 2672.7 2989.79C2696.11 3001.7 2722.81 3008.28 2749.1 3008.28H2751.97C2780.72 3007.86 2808.66 2999.65 2832.89 2984.86L2999.24 2883C3035.8 2860.82 3060.44 2825.49 3069.48 2784.01C3073.99 2763.47 3073.99 2742.11 3069.89 2721.17C3065.78 2699.81 3057.15 2679.68 3044.83 2661.61L2995.54 2589.32C3008.69 2569.6 3020.6 2549.89 3030.87 2529.35C3041.14 2509.22 3050.58 2487.86 3058.8 2465.68L3146.29 2463.22C3168.47 2462.81 3189.82 2457.88 3209.54 2448.84C3228.84 2439.81 3246.1 2427.49 3260.06 2411.88C3288.81 2379.02 3302.78 2338.35 3299.49 2295.64ZM164.297 1424.04V1213.33C164.297 1145.56 219.747 1090.11 287.52 1090.11H2727.74C2795.51 1090.11 2850.96 1145.56 2850.96 1213.33V1424.04C2850.96 1452.38 2841.51 1478.26 2825.5 1499.21L2722.81 1446.63C2698.99 1434.72 2672.7 1428.15 2646.82 1428.15C2631.21 1428.15 2616.02 1430.2 2601.23 1434.72C2581.1 1440.47 2562.62 1450.33 2546.6 1463.06C2529.76 1476.62 2515.8 1493.46 2505.94 1512.76L2488.28 1547.27H2287.83L2265.65 1514.82C2250.05 1491.82 2228.69 1472.92 2203.63 1460.19C2179.81 1448.28 2153.52 1441.7 2127.23 1441.7H2124.36C2095.61 1442.12 2067.68 1450.33 2043.44 1465.12L1909.13 1547.27H287.52C219.747 1547.27 164.297 1491.82 164.297 1424.04ZM3158.2 2318.23C3154.5 2322.34 3149.57 2324.39 3143 2324.39L3015.26 2327.68L2956.11 2329.32L2942.15 2378.2C2939.27 2388.05 2936.4 2397.91 2933.11 2407.36C2926.13 2427.49 2917.91 2447.2 2908.47 2465.27C2894.91 2491.97 2877.66 2518.26 2857.53 2543.73L2855.48 2546.19L2825.91 2583.16L2845.21 2611.91L2931.06 2738.01C2933.52 2741.7 2935.99 2747.45 2934.75 2754.03C2933.93 2758.13 2931.06 2761.83 2927.36 2764.29L2761.01 2865.75C2757.72 2867.8 2753.62 2869.03 2749.1 2869.03C2744.58 2869.03 2740.06 2867.8 2735.54 2865.75C2731.02 2863.69 2727.33 2860.41 2724.86 2856.3L2621.77 2705.15L2576.18 2715.01C2539.62 2722.81 2502.24 2726.92 2464.86 2726.92C2436.52 2726.92 2407.77 2724.45 2379.43 2720.34L2330.14 2712.54L2247.58 2873.55C2244.71 2879.3 2237.72 2883 2229.51 2883C2224.99 2883 2220.47 2881.77 2216.36 2879.71L2035.64 2786.89C2029.07 2783.6 2024.55 2778.26 2022.08 2772.51C2020.85 2769.63 2019.62 2763.47 2022.49 2757.72L2084.11 2637.38L2105.05 2596.71L2069.73 2561.39C2067.68 2559.33 2065.62 2557.28 2063.98 2555.23C2039.33 2529.76 2017.57 2502.24 1999.08 2473.08C1983.88 2449.26 1970.33 2424.61 1959.24 2398.73L1940.76 2356.02L1757.16 2360.95C1752.64 2360.95 1748.12 2359.71 1744.01 2357.66C1735.39 2353.14 1729.64 2345.34 1729.22 2337.12L1714.85 2142.84C1714.44 2138.32 1715.67 2134.22 1718.96 2130.93C1722.65 2126.82 1727.58 2124.77 1734.15 2124.77L1921.04 2119.84L1934.6 2070.96C1939.94 2052.07 1946.1 2033.58 1953.49 2016.33C1958.01 2005.24 1962.94 1994.56 1968.28 1983.88C1970.33 1979.78 1972.79 1975.67 1974.85 1971.56C1987.17 1948.97 2002.37 1926.79 2019.21 1905.43L2050.84 1865.59L2041.39 1851.63L1946.1 1711.97L1945.27 1711.15C1941.58 1705.81 1940.35 1700.47 1941.58 1695.13C1942.4 1691.03 1945.28 1687.33 1948.97 1684.86L2115.32 1583C2118.61 1580.95 2122.72 1579.71 2127.23 1579.71C2131.75 1579.71 2136.27 1580.95 2140.79 1583C2145.31 1585.05 2149 1588.34 2151.47 1592.45L2232.79 1711.56L2254.56 1743.6L2300.16 1733.74C2336.71 1725.94 2374.09 1721.83 2411.47 1721.83C2439.81 1721.83 2468.56 1724.3 2496.9 1728.4L2546.19 1736.21L2558.92 1711.15L2628.75 1575.2C2631.63 1569.45 2638.61 1565.75 2646.82 1565.75C2651.34 1565.75 2655.86 1566.98 2659.97 1569.03L2840.69 1661.86C2848.91 1665.97 2854.66 1673.77 2855.48 1681.58C2855.89 1684.86 2855.48 1688.15 2853.84 1691.03L2771.28 1852.04L2774.56 1855.32L2806.6 1887.77C2841.93 1923.51 2871.5 1962.53 2894.91 2005.24C2903.13 2020.03 2910.52 2034.82 2917.09 2050.42L2932.7 2086.16L2935.57 2093.14L3011.15 2091.09L3119.59 2088.21C3124.11 2088.21 3128.62 2089.45 3132.73 2091.5C3141.36 2096.02 3147.11 2103.82 3147.52 2112.04L3161.89 2306.32C3162.3 2310.84 3161.07 2314.94 3158.2 2318.23Z" fill="white"/>
<path d="M2390.52 1851.22H2445.15C2426.66 1849.98 2408.59 1849.98 2390.52 1851.22Z" fill="#06F3FF"/>
<path d="M2790.99 2112.86C2779.08 2078.36 2761.83 2045.91 2740.88 2016.33C2732.67 2004.83 2724.04 1994.15 2714.59 1983.47C2710.9 1979.37 2706.79 1974.85 2702.68 1970.74C2672.7 1939.94 2637.79 1914.06 2598.76 1893.93C2554.82 1871.34 2507.58 1857.38 2458.7 1852.04L2445.15 1850.8H2390.52C2363 1852.86 2335.89 1857.38 2309.19 1865.59C2260.31 1879.97 2216.36 1903.38 2178.16 1935.01C2165.02 1946.1 2152.7 1958.01 2141.2 1970.33C2128.46 1984.3 2117.37 1999.08 2107.11 2015.1C2100.95 2024.96 2094.78 2035.23 2089.44 2045.5C2067.68 2088.21 2054.94 2134.22 2051.25 2182.27C2047.55 2231.97 2054.53 2281.26 2071.37 2329.32C2088.21 2376.97 2113.68 2420.5 2147.77 2458.7C2151.88 2463.63 2156.4 2468.15 2160.91 2472.67C2190.9 2503.06 2225.4 2528.53 2263.6 2548.24C2268.12 2550.71 2272.64 2552.76 2277.56 2554.82C2317.82 2573.3 2360.12 2585.21 2403.66 2590.14C2454.18 2595.48 2504.7 2590.96 2553.17 2576.59C2572.89 2570.84 2591.37 2563.44 2609.44 2554.82C2636.14 2542.08 2661.2 2526.06 2684.2 2506.76C2696.93 2496.08 2708.84 2484.58 2719.93 2472.67C2740.88 2449.67 2758.54 2424.2 2772.92 2396.27C2794.69 2353.55 2807.42 2307.55 2811.12 2259.49C2814.82 2210.2 2807.83 2160.91 2790.99 2112.86ZM2725.27 2253.74C2722.81 2289.89 2712.95 2324.8 2696.52 2357.25C2680.09 2389.7 2657.5 2417.63 2629.57 2441.04C2614.78 2453.36 2598.76 2464.04 2581.51 2473.08C2565.08 2481.7 2547.83 2488.69 2529.35 2494.03C2491.56 2505.12 2452.54 2508.81 2413.11 2504.3C2375.73 2500.19 2340 2489.51 2305.91 2472.67C2305.08 2472.26 2304.26 2471.85 2303.03 2471.44C2268.53 2453.77 2237.72 2429.95 2212.26 2401.61C2185.97 2372.04 2165.84 2338.36 2153.11 2301.39C2140.38 2264.42 2135.04 2226.63 2137.91 2188.85C2140.38 2152.7 2150.23 2117.79 2166.66 2085.34C2180.22 2059.05 2197.47 2035.64 2218.42 2015.51C2223.35 2010.58 2228.28 2006.07 2233.61 2001.55C2247.58 1989.64 2263.19 1979.37 2279.21 1970.74C2296.46 1961.7 2314.53 1953.9 2333.84 1948.15C2371.62 1937.06 2410.64 1933.36 2450.08 1937.88C2488.28 1941.99 2525.24 1953.08 2559.74 1970.74C2583.57 1983.06 2605.34 1997.85 2625.05 2015.51C2634.09 2023.32 2642.71 2031.94 2650.52 2040.98C2676.81 2070.55 2696.93 2104.23 2709.67 2141.2C2722.81 2178.17 2727.74 2215.95 2725.27 2253.74Z" fill="white"/>
</svg>
