<svg width="4938" height="3827" viewBox="0 0 4938 3827" fill="none" xmlns="http://www.w3.org/2000/svg">
<path d="M4516.46 3827H421.568C188.958 3827 0 3638.04 0 3405.43V421.568C0 188.958 188.958 0 421.568 0H4515.86C4748.47 0 4937.43 188.958 4937.43 421.568V3405.43C4938.03 3638.04 4749.07 3827 4516.46 3827Z" fill="white"/>
<path d="M4698.84 418.578C4698.84 319.913 4618.11 239.188 4519.45 239.188H418.578C319.913 239.188 239.188 319.913 239.188 418.578V1136.74H4698.24V418.578H4698.84ZM813.836 993.226C645.208 993.226 507.676 855.693 507.676 687.066C507.676 518.439 645.208 380.906 813.836 380.906C982.463 380.906 1120 518.439 1120 687.066C1120 855.693 983.061 993.226 813.836 993.226ZM2498.91 952.564H1646.21C1502.1 952.564 1384.9 835.362 1384.9 691.252C1384.9 547.141 1502.1 429.94 1646.21 429.94H2498.91C2643.02 429.94 2760.22 547.141 2760.22 691.252C2760.22 835.362 2643.02 952.564 2498.91 952.564Z" fill="#E6E6E6"/>
<path d="M681.083 3376.73H2467.81C2500.7 3376.73 2527.61 3349.82 2527.61 3316.93C2527.61 3284.04 2500.7 3257.13 2467.81 3257.13H681.083C630.256 3257.13 588.996 3215.87 588.996 3165.05V2012.16C588.996 1979.27 562.088 1952.37 529.199 1952.37C496.311 1952.37 469.402 1979.27 469.402 2012.16V3165.64C470 3281.65 564.479 3376.73 681.083 3376.73Z" fill="white"/>
<path d="M813.834 500.5C710.983 500.5 627.268 584.216 627.268 687.066C627.268 789.917 710.983 873.633 813.834 873.633C916.684 873.633 1000.4 789.917 1000.4 687.066C1000.4 584.216 916.684 500.5 813.834 500.5Z" fill="white"/>
<path d="M813.834 380.906C645.207 380.906 507.674 518.439 507.674 687.066C507.674 855.693 645.207 993.226 813.834 993.226C982.461 993.226 1119.99 855.693 1119.99 687.066C1119.99 518.439 983.059 380.906 813.834 380.906ZM813.834 873.633C710.983 873.633 627.268 789.917 627.268 687.066C627.268 584.216 710.983 500.5 813.834 500.5C916.684 500.5 1000.4 584.216 1000.4 687.066C1000.4 789.917 916.684 873.633 813.834 873.633Z" fill="#0A090B"/>
<path d="M2498.91 550.131H1646.21C1568.47 550.131 1504.49 613.515 1504.49 691.849C1504.49 770.183 1567.87 833.568 1646.21 833.568H2498.91C2576.65 833.568 2640.63 770.183 2640.63 691.849C2640.63 613.515 2576.65 550.131 2498.91 550.131Z" fill="white"/>
<path d="M2498.91 430.537H1646.21C1502.1 430.537 1384.89 547.739 1384.89 691.849C1384.89 835.96 1502.1 953.162 1646.21 953.162H2498.91C2643.02 953.162 2760.22 835.96 2760.22 691.849C2760.22 547.739 2643.02 430.537 2498.91 430.537ZM2498.91 832.97H1646.21C1568.47 832.97 1504.49 769.585 1504.49 691.252C1504.49 612.918 1567.87 549.533 1646.21 549.533H2498.91C2576.65 549.533 2640.63 612.918 2640.63 691.252C2640.63 769.585 2576.65 832.97 2498.91 832.97Z" fill="#0A090B"/>
<path d="M4519.45 0H418.578C187.762 0 0 187.762 0 418.578V3408.42C0 3639.24 187.762 3827 418.578 3827H4518.85C4749.67 3827 4937.43 3639.24 4937.43 3408.42V418.578C4938.03 187.762 4750.26 0 4519.45 0ZM4698.84 3408.42C4698.84 3507.09 4618.11 3587.81 4519.45 3587.81H418.578C319.913 3587.81 239.187 3507.09 239.187 3408.42V1256.33H4698.24V3408.42H4698.84ZM4698.84 1136.74H239.785V418.578C239.785 319.913 320.511 239.188 419.176 239.188H4519.45C4618.11 239.188 4698.84 319.913 4698.84 418.578V1136.74Z" fill="#0A090B"/>
<path d="M2155.68 2610.13L1472.2 2339.25L2155.68 2077.94V1799.89L1176.21 2223.85V2460.04L2155.68 2885.8V2610.13ZM2806.27 1594.78H2600.57L2246.57 3072.96H2448.68L2806.27 1594.78ZM3877.83 2225.64L2897.16 1801.68V2075.55L3581.24 2341.65L2897.16 2610.73V2886.99L3877.83 2460.04V2225.64Z" fill="#0A090B"/>
</svg>
